<svg id="Bakgrunn" xmlns="http://www.w3.org/2000/svg" viewBox="0 0 1017.91 598.51"><defs><style>.cls-1{fill:#009dda;}.cls-2{fill:#786fb9;}.cls-3{fill:#fa000f;}.cls-4{fill:#00ac43;}.cls-10,.cls-11,.cls-5,.cls-8,.cls-9{fill:#1b1b1b;}.cls-6{fill:#c7007f;}.cls-7{fill:#dfe600;}.cls-8{opacity:0.29;}.cls-9{opacity:0.18;}.cls-10{opacity:0.37;}.cls-11{opacity:0.15;}.cls-12{fill:none;stroke:#000;stroke-miterlimit:10;stroke-width:0.25px;}</style></defs><rect class="cls-1" x="931.09" y="8.49" width="86.82" height="86.82" rx="2.71"/><rect class="cls-2" x="669.49" y="95.32" width="86.82" height="86.82" rx="2.71"/><rect class="cls-3" x="931.09" y="182.14" width="86.82" height="86.82" rx="2.71"/><rect class="cls-4" x="931.09" y="355.79" width="86.82" height="86.82" rx="2.71"/><rect class="cls-3" x="756.69" y="8.49" width="174.4" height="86.82" rx="2.71"/><rect class="cls-4" x="844.26" y="95.32" width="173.65" height="86.82" rx="2.71"/><rect class="cls-5" x="756.69" y="95.32" width="86.82" height="86.82"/><rect class="cls-6" x="844.26" y="268.96" width="173.65" height="86.82"/><rect class="cls-1" x="756.69" y="355.79" width="173.65" height="86.82"/><rect class="cls-6" x="669.11" y="182.14" width="174.4" height="86.82" rx="2.71"/><rect class="cls-7" x="844.26" y="182.14" width="86.82" height="86.82" rx="2.71"/><rect class="cls-7" x="756.69" y="268.96" width="86.82" height="86.82" rx="2.71"/><rect class="cls-8" x="669.21" y="95.32" width="21.8" height="175.77" rx="2.71"/><rect class="cls-9" x="931.09" y="355.79" width="21.21" height="86.82" rx="2.71"/><rect class="cls-10" x="757.06" y="8.49" width="24.04" height="86.82" rx="2.71"/><rect class="cls-11" x="703.48" y="268.96" width="77.05" height="86.82" rx="2.71"/><rect class="cls-1" x="669.11" y="268.96" width="86.82" height="86.82" rx="2.71"/><rect class="cls-1" x="669.11" y="8.49" width="86.82" height="86.82" rx="2.71"/><rect class="cls-1" x="678.45" y="262.72" width="22.52" height="16.73" rx="4.11"/><rect class="cls-1" x="717.57" y="262.72" width="22.52" height="16.73" rx="4.11"/><rect class="cls-1" x="769.28" y="346.24" width="22.52" height="16.73" rx="4.11"/><rect class="cls-1" x="808.4" y="346.24" width="22.52" height="16.73" rx="4.11"/><rect class="cls-1" x="856.48" y="346.24" width="22.52" height="16.73" rx="4.11"/><rect class="cls-1" x="895.6" y="346.24" width="22.52" height="16.73" rx="4.11"/><rect class="cls-1" x="596.35" width="22.52" height="16.73" rx="4.11"/><rect class="cls-1" x="635.47" width="22.52" height="16.73" rx="4.11"/><rect class="cls-1" x="683.55" width="22.52" height="16.73" rx="4.11"/><rect class="cls-1" x="722.67" width="22.52" height="16.73" rx="4.11"/><rect class="cls-5" x="769.84" y="86.95" width="22.52" height="16.73" rx="4.11"/><rect class="cls-5" x="808.96" y="86.95" width="22.52" height="16.73" rx="4.11"/><rect class="cls-4" x="857.04" y="86.95" width="22.52" height="16.73" rx="4.11"/><rect class="cls-4" x="896.16" y="86.95" width="22.52" height="16.73" rx="4.11"/><rect class="cls-1" x="947.84" width="22.52" height="16.73" rx="4.11"/><rect class="cls-1" x="986.96" width="22.52" height="16.73" rx="4.11"/><rect class="cls-1" x="423.58" width="22.52" height="16.73" rx="4.11"/><rect class="cls-1" x="462.7" width="22.52" height="16.73" rx="4.11"/><rect class="cls-1" x="510.78" width="22.52" height="16.73" rx="4.11"/><rect class="cls-1" x="549.9" width="22.52" height="16.73" rx="4.11"/><rect class="cls-1" x="250.81" width="22.52" height="16.73" rx="4.11"/><rect class="cls-1" x="289.93" width="22.52" height="16.73" rx="4.11"/><rect class="cls-1" x="338.01" width="22.52" height="16.73" rx="4.11"/><rect class="cls-1" x="377.13" width="22.52" height="16.73" rx="4.11"/><rect class="cls-1" x="78.03" width="22.52" height="16.73" rx="4.11"/><rect class="cls-1" x="117.15" width="22.52" height="16.73" rx="4.11"/><rect class="cls-1" x="165.23" width="22.52" height="16.73" rx="4.11"/><rect class="cls-1" x="204.35" width="22.52" height="16.73" rx="4.11"/><rect class="cls-1" x="943.68" y="434.24" width="22.52" height="16.73" rx="4.11"/><rect class="cls-1" x="982.8" y="434.24" width="22.52" height="16.73" rx="4.11"/><line class="cls-12" x1="756.69" y1="355.79" x2="590.51" y2="355.79"/><line class="cls-12" x1="724.86" y1="182.14" x2="558.68" y2="182.14"/><line class="cls-12" x1="672.05" y1="268.96" x2="505.87" y2="268.96"/><line class="cls-12" x1="752.58" y1="95.32" x2="586.4" y2="95.32"/><line class="cls-12" x1="931.09" y1="442.61" x2="516.18" y2="442.61"/><line class="cls-12" x1="669.11" y1="442.61" x2="669.11" y2="265.45"/><line class="cls-12" x1="586.4" y1="208.16" x2="586.4" y2="8.49"/><line class="cls-12" x1="756.69" y1="598.51" x2="756.69" y2="355.79"/><line class="cls-12" x1="1017.91" y1="519.56" x2="756.69" y2="519.56"/></svg>