<svg xmlns="http://www.w3.org/2000/svg" viewBox="0 0 85.89 42.13"><defs><style>.cls-1{fill:#bb000b;}.cls-1,.cls-2,.cls-3{stroke:#000;stroke-linejoin:round;}.cls-2{fill:#fa000f;}.cls-3{fill:none;}</style></defs><g id="Elementer"><polygon class="cls-1" points="85.27 1.73 85.27 28.32 72.26 41.34 72.26 14.74 85.27 1.73"/><rect class="cls-2" x="0.55" y="14.74" width="71.66" height="26.6"/><polygon class="cls-1" points="85.22 1.73 72.21 14.74 0.55 14.74 13.56 1.73 85.22 1.73"/><path class="cls-1" d="M17.23,7.69c0,.56-2.06,1-4.61,1S8,8.25,8,7.69s2.06-1,4.6-1S17.23,7.14,17.23,7.69Z"/><path class="cls-2" d="M17.23,7.69V11.2c0,.55-2.06,1-4.61,1S8,11.75,8,11.2V7.69c0,.56,2.06,1,4.6,1S17.23,8.25,17.23,7.69Z"/><path class="cls-1" d="M23,1.64c0,.5-1.84.9-4.12.9s-4.12-.4-4.12-.9,1.84-.9,4.12-.9S23,1.14,23,1.64Z"/><path class="cls-2" d="M23,1.64V4.77c0,.5-1.84.91-4.12.91s-4.12-.41-4.12-.91V1.64c0,.5,1.84.9,4.12.9S23,2.14,23,1.64Z"/><path class="cls-1" d="M35.57,7.69c0,.56-2.07,1-4.61,1s-4.61-.45-4.61-1,2.06-1,4.61-1S35.57,7.14,35.57,7.69Z"/><path class="cls-2" d="M35.57,7.69V11.2c0,.55-2.07,1-4.61,1s-4.61-.46-4.61-1V7.69c0,.56,2.06,1,4.61,1S35.57,8.25,35.57,7.69Z"/><path class="cls-1" d="M42,1.64c0,.5-1.84.9-4.12.9s-4.12-.4-4.12-.9,1.85-.9,4.12-.9S42,1.14,42,1.64Z"/><path class="cls-2" d="M42,1.64V4.77c0,.5-1.84.91-4.12.91s-4.12-.41-4.12-.91V1.64c0,.5,1.85.9,4.12.9S42,2.14,42,1.64Z"/><path class="cls-1" d="M54,7.69c0,.56-2.06,1-4.61,1s-4.61-.45-4.61-1,2.07-1,4.61-1S54,7.14,54,7.69Z"/><path class="cls-2" d="M54,7.69V11.2c0,.55-2.06,1-4.61,1s-4.61-.46-4.61-1V7.69c0,.56,2.07,1,4.61,1S54,8.25,54,7.69Z"/><path class="cls-1" d="M59.69,1.64c0,.5-1.84.9-4.12.9s-4.12-.4-4.12-.9,1.84-.9,4.12-.9S59.69,1.14,59.69,1.64Z"/><path class="cls-2" d="M59.69,1.64V4.77c0,.5-1.84.91-4.12.91s-4.12-.41-4.12-.91V1.64c0,.5,1.84.9,4.12.9S59.69,2.14,59.69,1.64Z"/><path class="cls-1" d="M72.31,7.69c0,.56-2.07,1-4.61,1s-4.61-.45-4.61-1,2.06-1,4.61-1S72.31,7.14,72.31,7.69Z"/><path class="cls-2" d="M72.31,7.69V11.2c0,.55-2.07,1-4.61,1s-4.61-.46-4.61-1V7.69c0,.56,2.06,1,4.61,1S72.31,8.25,72.31,7.69Z"/><path class="cls-1" d="M78.76,1.64c0,.5-1.84.9-4.12.9s-4.12-.4-4.12-.9,1.85-.9,4.12-.9S78.76,1.14,78.76,1.64Z"/><path class="cls-2" d="M78.76,1.64V4.77c0,.5-1.84.91-4.12.91s-4.12-.41-4.12-.91V1.64c0,.5,1.85.9,4.12.9S78.76,2.14,78.76,1.64Z"/><line class="cls-3" x1="72.25" y1="14.74" x2="72.21" y2="14.74"/></g></svg>