<svg xmlns="http://www.w3.org/2000/svg" viewBox="0 0 50 41.82"><defs><style>.cls-1{fill:#00ac43;}.cls-1,.cls-2{stroke:#000;stroke-linejoin:round;}.cls-2{fill:#008132;}</style></defs><g id="Elementer"><rect class="cls-1" x="0.58" y="14.58" width="35.83" height="26.59"/><polygon class="cls-2" points="49.42 1.56 49.42 28.16 36.4 41.17 36.4 14.58 49.42 1.56"/><polygon class="cls-2" points="49.42 1.56 36.4 14.58 0.57 14.58 13.59 1.56 49.42 1.56"/><path class="cls-2" d="M17.23,7.53c0,.56-2.06,1-4.61,1S8,8.09,8,7.53s2.06-1,4.6-1S17.23,7,17.23,7.53Z"/><path class="cls-1" d="M17.23,7.53V11c0,.56-2.06,1-4.61,1S8,11.59,8,11V7.53c0,.56,2.06,1,4.6,1S17.23,8.09,17.23,7.53Z"/><path class="cls-2" d="M23,1.48c0,.49-1.84.9-4.12.9s-4.12-.41-4.12-.9S16.55.57,18.83.57,23,1,23,1.48Z"/><path class="cls-1" d="M23,1.48V4.61c0,.5-1.84.9-4.12.9s-4.12-.4-4.12-.9V1.48c0,.49,1.84.9,4.12.9S23,2,23,1.48Z"/><path class="cls-2" d="M35.57,7.53c0,.56-2.07,1-4.61,1s-4.61-.45-4.61-1,2.06-1,4.61-1S35.57,7,35.57,7.53Z"/><path class="cls-1" d="M35.57,7.53V11c0,.56-2.07,1-4.61,1s-4.61-.45-4.61-1V7.53c0,.56,2.06,1,4.61,1S35.57,8.09,35.57,7.53Z"/><path class="cls-2" d="M42,1.48c0,.49-1.84.9-4.12.9s-4.12-.41-4.12-.9S35.63.57,37.9.57,42,1,42,1.48Z"/><path class="cls-1" d="M42,1.48V4.61c0,.5-1.84.9-4.12.9s-4.12-.4-4.12-.9V1.48c0,.49,1.85.9,4.12.9S42,2,42,1.48Z"/></g></svg>