<svg xmlns="http://www.w3.org/2000/svg" viewBox="0 0 392.08 345.51"><defs><style>.cls-1{fill:#666;}.cls-1,.cls-2,.cls-3{stroke:#000;stroke-linejoin:round;}.cls-2{fill:#4d4d4d;}.cls-3{fill:none;}</style></defs><g id="Elementer"><path class="cls-1" d="M107.29,320.36H97.84a11.13,11.13,0,0,1,4.73-.74A11.11,11.11,0,0,1,107.29,320.36Z"/><path class="cls-1" d="M118,310.29v3.79c0,.6-2.23,1.09-5,1.09s-5-.49-5-1.09v-3.79c0-.61,2.23-1.1,5-1.1S118,309.68,118,310.29Z"/><path class="cls-1" d="M141.7,320.36h-9.44a15.42,15.42,0,0,1,9.44,0Z"/><path class="cls-1" d="M152.4,310.29v3.79c0,.6-2.23,1.09-5,1.09s-5-.49-5-1.09v-3.79c0-.61,2.23-1.1,5-1.1S152.4,309.68,152.4,310.29Z"/><path class="cls-1" d="M176.11,320.36h-9.45a15.45,15.45,0,0,1,9.45,0Z"/><path class="cls-1" d="M186.81,310.29v3.79c0,.6-2.23,1.09-5,1.09s-5-.49-5-1.09v-3.79c0-.61,2.23-1.1,5-1.1S186.81,309.68,186.81,310.29Z"/><path class="cls-1" d="M210.52,320.36h-9.45a15.45,15.45,0,0,1,9.45,0Z"/><path class="cls-1" d="M221.22,310.29v3.79c0,.6-2.23,1.09-5,1.09s-5-.49-5-1.09v-3.79c0-.61,2.23-1.1,5-1.1S221.22,309.68,221.22,310.29Z"/><path class="cls-1" d="M244.92,320.36h-9.44a15.42,15.42,0,0,1,9.44,0Z"/><path class="cls-1" d="M255.63,310.29v3.79c0,.6-2.23,1.09-5,1.09s-5-.49-5-1.09v-3.79c0-.61,2.23-1.1,5-1.1S255.63,309.68,255.63,310.29Z"/><path class="cls-1" d="M279.34,320.36h-9.45a15.45,15.45,0,0,1,9.45,0Z"/><path class="cls-1" d="M290,310.29v3.79c0,.6-2.23,1.09-5,1.09s-5-.49-5-1.09v-3.79c0-.61,2.23-1.1,5-1.1S290,309.68,290,310.29Z"/><path class="cls-1" d="M128.57,299.71v3.8c0,.6-2.24,1.09-5,1.09s-5-.49-5-1.09v-3.8c0-.6,2.24-1.1,5-1.1S128.57,299.11,128.57,299.71Z"/><path class="cls-1" d="M163,299.71v3.8c0,.6-2.24,1.09-5,1.09s-5-.49-5-1.09v-3.8c0-.6,2.24-1.1,5-1.1S163,299.11,163,299.71Z"/><path class="cls-1" d="M197.39,299.71v3.8c0,.6-2.24,1.09-5,1.09s-5-.49-5-1.09v-3.8c0-.6,2.24-1.1,5-1.1S197.39,299.11,197.39,299.71Z"/><path class="cls-1" d="M231.8,299.71v3.8c0,.6-2.24,1.09-5,1.09s-5-.49-5-1.09v-3.8c0-.6,2.24-1.1,5-1.1S231.8,299.11,231.8,299.71Z"/><path class="cls-1" d="M266.21,299.71v3.8c0,.6-2.24,1.09-5,1.09s-5-.49-5-1.09v-3.8c0-.6,2.24-1.1,5-1.1S266.21,299.11,266.21,299.71Z"/><path class="cls-1" d="M300.62,299.71v3.8c0,.6-2.24,1.09-5,1.09s-5-.49-5-1.09v-3.8c0-.6,2.24-1.1,5-1.1S300.62,299.11,300.62,299.71Z"/><path class="cls-2" d="M128.57,299.71c0,.6-2.24,1.09-5,1.09s-5-.49-5-1.09,2.24-1.1,5-1.1S128.57,299.11,128.57,299.71Z"/><path class="cls-1" d="M128.57,299.71v3.8c0,.6-2.24,1.09-5,1.09s-5-.49-5-1.09v-3.8c0,.6,2.24,1.09,5,1.09S128.57,300.31,128.57,299.71Z"/><path class="cls-2" d="M163,299.71c0,.6-2.24,1.09-5,1.09s-5-.49-5-1.09,2.24-1.1,5-1.1S163,299.11,163,299.71Z"/><path class="cls-1" d="M163,299.71v3.8c0,.6-2.24,1.09-5,1.09s-5-.49-5-1.09v-3.8c0,.6,2.24,1.09,5,1.09S163,300.31,163,299.71Z"/><path class="cls-1" d="M197.39,299.71c0,.6-2.24,1.09-5,1.09s-5-.49-5-1.09,2.24-1.1,5-1.1S197.39,299.11,197.39,299.71Z"/><path class="cls-1" d="M197.39,299.71v3.8c0,.6-2.24,1.09-5,1.09s-5-.49-5-1.09v-3.8c0,.6,2.24,1.09,5,1.09S197.39,300.31,197.39,299.71Z"/><path class="cls-2" d="M231.8,299.71c0,.6-2.24,1.09-5,1.09s-5-.49-5-1.09,2.24-1.1,5-1.1S231.8,299.11,231.8,299.71Z"/><path class="cls-1" d="M231.8,299.71v3.8c0,.6-2.24,1.09-5,1.09s-5-.49-5-1.09v-3.8c0,.6,2.24,1.09,5,1.09S231.8,300.31,231.8,299.71Z"/><path class="cls-2" d="M266.21,299.71c0,.6-2.24,1.09-5,1.09s-5-.49-5-1.09,2.24-1.1,5-1.1S266.21,299.11,266.21,299.71Z"/><path class="cls-1" d="M266.21,299.71v3.8c0,.6-2.24,1.09-5,1.09s-5-.49-5-1.09v-3.8c0,.6,2.24,1.09,5,1.09S266.21,300.31,266.21,299.71Z"/><path class="cls-2" d="M300.62,299.71c0,.6-2.24,1.09-5,1.09s-5-.49-5-1.09,2.24-1.1,5-1.1S300.62,299.11,300.62,299.71Z"/><path class="cls-1" d="M300.62,299.71v3.8c0,.6-2.24,1.09-5,1.09s-5-.49-5-1.09v-3.8c0,.6,2.24,1.09,5,1.09S300.62,300.31,300.62,299.71Z"/><path class="cls-1" d="M107.56,320.72v3.8c0,.6-2.24,1.09-5,1.09s-5-.49-5-1.09v-3.8q0-.2.27-.36a11.13,11.13,0,0,1,4.73-.74,11.11,11.11,0,0,1,4.72.74Q107.56,320.53,107.56,320.72Z"/><path class="cls-1" d="M142,320.72v3.8c0,.6-2.24,1.09-5,1.09s-5-.49-5-1.09v-3.8c0-.13.1-.25.28-.36a15.42,15.42,0,0,1,9.44,0Q142,320.53,142,320.72Z"/><path class="cls-1" d="M176.38,320.72v3.8c0,.6-2.24,1.09-5,1.09s-5-.49-5-1.09v-3.8q0-.2.27-.36a15.45,15.45,0,0,1,9.45,0Q176.38,320.53,176.38,320.72Z"/><path class="cls-1" d="M210.79,320.72v3.8c0,.6-2.24,1.09-5,1.09s-5-.49-5-1.09v-3.8q0-.2.27-.36a15.45,15.45,0,0,1,9.45,0Q210.79,320.53,210.79,320.72Z"/><path class="cls-1" d="M245.2,320.72v3.8c0,.6-2.24,1.09-5,1.09s-5-.49-5-1.09v-3.8q0-.2.27-.36a15.42,15.42,0,0,1,9.44,0C245.1,320.47,245.2,320.59,245.2,320.72Z"/><path class="cls-1" d="M279.61,320.72v3.8c0,.6-2.24,1.09-5,1.09s-5-.49-5-1.09v-3.8q0-.2.27-.36a15.45,15.45,0,0,1,9.45,0Q279.61,320.53,279.61,320.72Z"/><path class="cls-1" d="M118,310.29v3.79c0,.6-2.23,1.09-5,1.09s-5-.49-5-1.09v-3.79c0-.61,2.23-1.1,5-1.1S118,309.68,118,310.29Z"/><path class="cls-1" d="M152.4,310.29v3.79c0,.6-2.23,1.09-5,1.09s-5-.49-5-1.09v-3.79c0-.61,2.23-1.1,5-1.1S152.4,309.68,152.4,310.29Z"/><path class="cls-1" d="M186.81,310.29v3.79c0,.6-2.23,1.09-5,1.09s-5-.49-5-1.09v-3.79c0-.61,2.23-1.1,5-1.1S186.81,309.68,186.81,310.29Z"/><path class="cls-1" d="M221.22,310.29v3.79c0,.6-2.23,1.09-5,1.09s-5-.49-5-1.09v-3.79c0-.61,2.23-1.1,5-1.1S221.22,309.68,221.22,310.29Z"/><path class="cls-1" d="M255.63,310.29v3.79c0,.6-2.23,1.09-5,1.09s-5-.49-5-1.09v-3.79c0-.61,2.23-1.1,5-1.1S255.63,309.68,255.63,310.29Z"/><path class="cls-1" d="M290,310.29v3.79c0,.6-2.23,1.09-5,1.09s-5-.49-5-1.09v-3.79c0-.61,2.23-1.1,5-1.1S290,309.68,290,310.29Z"/><path class="cls-2" d="M118,310.29c0,.6-2.23,1.09-5,1.09s-5-.49-5-1.09,2.23-1.1,5-1.1S118,309.68,118,310.29Z"/><path class="cls-1" d="M118,310.29v3.79c0,.6-2.23,1.09-5,1.09s-5-.49-5-1.09v-3.79c0,.6,2.23,1.09,5,1.09S118,310.89,118,310.29Z"/><path class="cls-2" d="M152.4,310.29c0,.6-2.23,1.09-5,1.09s-5-.49-5-1.09,2.23-1.1,5-1.1S152.4,309.68,152.4,310.29Z"/><path class="cls-1" d="M152.4,310.29v3.79c0,.6-2.23,1.09-5,1.09s-5-.49-5-1.09v-3.79c0,.6,2.23,1.09,5,1.09S152.4,310.89,152.4,310.29Z"/><path class="cls-1" d="M186.81,310.29c0,.6-2.23,1.09-5,1.09s-5-.49-5-1.09,2.23-1.1,5-1.1S186.81,309.68,186.81,310.29Z"/><path class="cls-1" d="M186.81,310.29v3.79c0,.6-2.23,1.09-5,1.09s-5-.49-5-1.09v-3.79c0,.6,2.23,1.09,5,1.09S186.81,310.89,186.81,310.29Z"/><path class="cls-1" d="M221.22,310.29c0,.6-2.23,1.09-5,1.09s-5-.49-5-1.09,2.23-1.1,5-1.1S221.22,309.68,221.22,310.29Z"/><path class="cls-1" d="M221.22,310.29v3.79c0,.6-2.23,1.09-5,1.09s-5-.49-5-1.09v-3.79c0,.6,2.23,1.09,5,1.09S221.22,310.89,221.22,310.29Z"/><path class="cls-2" d="M255.63,310.29c0,.6-2.23,1.09-5,1.09s-5-.49-5-1.09,2.23-1.1,5-1.1S255.63,309.68,255.63,310.29Z"/><path class="cls-1" d="M255.63,310.29v3.79c0,.6-2.23,1.09-5,1.09s-5-.49-5-1.09v-3.79c0,.6,2.23,1.09,5,1.09S255.63,310.89,255.63,310.29Z"/><path class="cls-2" d="M290,310.29c0,.6-2.23,1.09-5,1.09s-5-.49-5-1.09,2.23-1.1,5-1.1S290,309.68,290,310.29Z"/><path class="cls-1" d="M290,310.29v3.79c0,.6-2.23,1.09-5,1.09s-5-.49-5-1.09v-3.79c0,.6,2.23,1.09,5,1.09S290,310.89,290,310.29Z"/><rect class="cls-1" x="80.58" y="329.21" width="204.73" height="12.16"/><path class="cls-2" d="M285.31,329.21v12.16l10.43-10.44h0l10.43-10.43v-.14h.14l10.43-10.44V297.76Z"/><path class="cls-2" d="M112,297.76,101.59,308.2v.14h-.14L91,318.77,80.58,329.21H285.31l31.44-31.45Zm-4.47,26.76c0,.6-2.24,1.09-5,1.09s-5-.49-5-1.09v-3.8q0-.2.27-.36a11.13,11.13,0,0,1,4.73-.74,11.11,11.11,0,0,1,4.72.74q.27.17.27.36ZM118,314.08c0,.6-2.23,1.09-5,1.09s-5-.49-5-1.09v-3.79c0-.61,2.23-1.1,5-1.1s5,.49,5,1.1Zm10.58-10.57c0,.6-2.24,1.09-5,1.09s-5-.49-5-1.09v-3.8c0-.6,2.24-1.1,5-1.1s5,.5,5,1.1Zm13.4,21c0,.6-2.24,1.09-5,1.09s-5-.49-5-1.09v-3.8c0-.13.1-.25.28-.36a15.42,15.42,0,0,1,9.44,0q.27.17.27.36Zm10.43-10.44c0,.6-2.23,1.09-5,1.09s-5-.49-5-1.09v-3.79c0-.61,2.23-1.1,5-1.1s5,.49,5,1.1ZM163,303.51c0,.6-2.24,1.09-5,1.09s-5-.49-5-1.09v-3.8c0-.6,2.24-1.1,5-1.1s5,.5,5,1.1Zm13.4,21c0,.6-2.24,1.09-5,1.09s-5-.49-5-1.09v-3.8q0-.2.27-.36a15.45,15.45,0,0,1,9.45,0q.27.17.27.36Zm10.43-10.44c0,.6-2.23,1.09-5,1.09s-5-.49-5-1.09v-3.79c0-.61,2.23-1.1,5-1.1s5,.49,5,1.1Zm10.58-10.57c0,.6-2.24,1.09-5,1.09s-5-.49-5-1.09v-3.8c0-.6,2.24-1.1,5-1.1s5,.5,5,1.1Zm13.4,21c0,.6-2.24,1.09-5,1.09s-5-.49-5-1.09v-3.8q0-.2.27-.36a15.45,15.45,0,0,1,9.45,0q.27.17.27.36Zm10.43-10.44c0,.6-2.23,1.09-5,1.09s-5-.49-5-1.09v-3.79c0-.61,2.23-1.1,5-1.1s5,.49,5,1.1Zm10.58-10.57c0,.6-2.24,1.09-5,1.09s-5-.49-5-1.09v-3.8c0-.6,2.24-1.1,5-1.1s5,.5,5,1.1Zm13.4,21c0,.6-2.24,1.09-5,1.09s-5-.49-5-1.09v-3.8q0-.2.27-.36a15.42,15.42,0,0,1,9.44,0c.18.11.28.23.28.36Zm10.43-10.44c0,.6-2.23,1.09-5,1.09s-5-.49-5-1.09v-3.79c0-.61,2.23-1.1,5-1.1s5,.49,5,1.1Zm10.58-10.57c0,.6-2.24,1.09-5,1.09s-5-.49-5-1.09v-3.8c0-.6,2.24-1.1,5-1.1s5,.5,5,1.1Zm13.4,21c0,.6-2.24,1.09-5,1.09s-5-.49-5-1.09v-3.8q0-.2.27-.36a15.45,15.45,0,0,1,9.45,0q.27.17.27.36ZM290,314.08c0,.6-2.23,1.09-5,1.09s-5-.49-5-1.09v-3.79c0-.61,2.23-1.1,5-1.1s5,.49,5,1.1Zm5.58-9.48c-2.75,0-5-.49-5-1.09v-3.8c0-.6,2.24-1.1,5-1.1s5,.5,5,1.1v3.8C300.62,304.11,298.38,304.6,295.62,304.6Z"/><path class="cls-1" d="M107.56,320.72v3.8c0,.6-2.24,1.09-5,1.09s-5-.49-5-1.09v-3.8q0-.2.27-.36a11.13,11.13,0,0,1,4.73-.74,11.11,11.11,0,0,1,4.72.74Q107.56,320.53,107.56,320.72Z"/><path class="cls-1" d="M142,320.72v3.8c0,.6-2.24,1.09-5,1.09s-5-.49-5-1.09v-3.8c0-.13.1-.25.28-.36a15.42,15.42,0,0,1,9.44,0Q142,320.53,142,320.72Z"/><path class="cls-1" d="M176.38,320.72v3.8c0,.6-2.24,1.09-5,1.09s-5-.49-5-1.09v-3.8q0-.2.27-.36a15.45,15.45,0,0,1,9.45,0Q176.38,320.53,176.38,320.72Z"/><path class="cls-1" d="M210.79,320.72v3.8c0,.6-2.24,1.09-5,1.09s-5-.49-5-1.09v-3.8q0-.2.27-.36a15.45,15.45,0,0,1,9.45,0Q210.79,320.53,210.79,320.72Z"/><path class="cls-1" d="M245.2,320.72v3.8c0,.6-2.24,1.09-5,1.09s-5-.49-5-1.09v-3.8q0-.2.27-.36a15.42,15.42,0,0,1,9.44,0C245.1,320.47,245.2,320.59,245.2,320.72Z"/><path class="cls-1" d="M279.61,320.72v3.8c0,.6-2.24,1.09-5,1.09s-5-.49-5-1.09v-3.8q0-.2.27-.36a15.45,15.45,0,0,1,9.45,0Q279.61,320.53,279.61,320.72Z"/><path class="cls-2" d="M107.56,320.72c0,.6-2.24,1.09-5,1.09s-5-.49-5-1.09q0-.2.27-.36a11.13,11.13,0,0,1,4.73-.74,11.11,11.11,0,0,1,4.72.74Q107.56,320.53,107.56,320.72Z"/><path class="cls-1" d="M107.56,320.72v3.8c0,.6-2.24,1.09-5,1.09s-5-.49-5-1.09v-3.8c0,.6,2.24,1.09,5,1.09S107.56,321.32,107.56,320.72Z"/><path class="cls-2" d="M142,320.72c0,.6-2.24,1.09-5,1.09s-5-.49-5-1.09c0-.13.1-.25.28-.36a15.42,15.42,0,0,1,9.44,0Q142,320.53,142,320.72Z"/><path class="cls-1" d="M142,320.72v3.8c0,.6-2.24,1.09-5,1.09s-5-.49-5-1.09v-3.8c0,.6,2.24,1.09,5,1.09S142,321.32,142,320.72Z"/><path class="cls-2" d="M176.38,320.72c0,.6-2.24,1.09-5,1.09s-5-.49-5-1.09q0-.2.27-.36a15.45,15.45,0,0,1,9.45,0Q176.38,320.53,176.38,320.72Z"/><path class="cls-1" d="M176.38,320.72v3.8c0,.6-2.24,1.09-5,1.09s-5-.49-5-1.09v-3.8c0,.6,2.24,1.09,5,1.09S176.38,321.32,176.38,320.72Z"/><path class="cls-2" d="M210.79,320.72c0,.6-2.24,1.09-5,1.09s-5-.49-5-1.09q0-.2.27-.36a15.45,15.45,0,0,1,9.45,0Q210.79,320.53,210.79,320.72Z"/><path class="cls-1" d="M210.79,320.72v3.8c0,.6-2.24,1.09-5,1.09s-5-.49-5-1.09v-3.8c0,.6,2.24,1.09,5,1.09S210.79,321.32,210.79,320.72Z"/><path class="cls-2" d="M245.2,320.72c0,.6-2.24,1.09-5,1.09s-5-.49-5-1.09q0-.2.27-.36a15.42,15.42,0,0,1,9.44,0C245.1,320.47,245.2,320.59,245.2,320.72Z"/><path class="cls-1" d="M245.2,320.72v3.8c0,.6-2.24,1.09-5,1.09s-5-.49-5-1.09v-3.8c0,.6,2.24,1.09,5,1.09S245.2,321.32,245.2,320.72Z"/><path class="cls-2" d="M279.61,320.72c0,.6-2.24,1.09-5,1.09s-5-.49-5-1.09q0-.2.27-.36a15.45,15.45,0,0,1,9.45,0Q279.61,320.53,279.61,320.72Z"/><path class="cls-1" d="M279.61,320.72v3.8c0,.6-2.24,1.09-5,1.09s-5-.49-5-1.09v-3.8c0,.6,2.24,1.09,5,1.09S279.61,321.32,279.61,320.72Z"/><path class="cls-1" d="M188.26,244.5v3.8c0,.6-2.23,1.09-5,1.09s-5-.49-5-1.09v-3.8c0-.6,2.24-1.09,5-1.09S188.26,243.9,188.26,244.5Z"/><path class="cls-1" d="M188.26,244.5c0,.6-2.23,1.09-5,1.09s-5-.49-5-1.09,2.24-1.09,5-1.09S188.26,243.9,188.26,244.5Z"/><path class="cls-1" d="M188.26,244.5v3.8c0,.6-2.23,1.09-5,1.09s-5-.49-5-1.09v-3.8c0,.6,2.24,1.09,5,1.09S188.26,245.1,188.26,244.5Z"/><polygon class="cls-2" points="231.12 242.55 231.12 308.34 220.69 318.78 220.69 252.99 231.12 242.55"/><path class="cls-1" d="M202.39,242.55l-.12.12v-.12H173.55L163.11,253v65.79h28.73l.12-.12v.12h28.73V253l10.43-10.44Zm4.74,1.95c0-.6,2.23-1.09,5-1.09s5,.49,5,1.09v3.8c0,.6-2.23,1.09-5,1.09s-5-.49-5-1.09Zm-28.85,0c0-.6,2.24-1.09,5-1.09s5,.49,5,1.09v3.8c0,.6-2.23,1.09-5,1.09s-5-.49-5-1.09Z"/><path class="cls-1" d="M217.11,244.5v3.8c0,.6-2.23,1.09-5,1.09s-5-.49-5-1.09v-3.8c0-.6,2.23-1.09,5-1.09S217.11,243.9,217.11,244.5Z"/><path class="cls-1" d="M217.11,244.5c0,.6-2.23,1.09-5,1.09s-5-.49-5-1.09,2.23-1.09,5-1.09S217.11,243.9,217.11,244.5Z"/><path class="cls-1" d="M217.11,244.5v3.8c0,.6-2.23,1.09-5,1.09s-5-.49-5-1.09v-3.8c0,.6,2.23,1.09,5,1.09S217.11,245.1,217.11,244.5Z"/><line class="cls-3" x1="163.11" y1="252.99" x2="220.69" y2="252.99"/><rect class="cls-1" x="4.91" y="241.69" width="367.73" height="12.16"/><polygon class="cls-2" points="383.07 231.25 383.07 243.41 372.63 253.85 372.63 241.69 383.07 231.25"/><polygon class="cls-2" points="383.07 231.25 372.63 241.69 4.91 241.69 15.34 231.25 383.07 231.25"/><path class="cls-2" d="M30.06,233.2c0,.6-2.24,1.09-5,1.09s-5-.49-5-1.09,2.23-1.09,5-1.09S30.06,232.6,30.06,233.2Z"/><path class="cls-1" d="M30.06,233.2V237c0,.6-2.24,1.09-5,1.09s-5-.49-5-1.09v-3.8c0,.6,2.23,1.09,5,1.09S30.06,233.8,30.06,233.2Z"/><path class="cls-2" d="M64.47,233.2c0,.6-2.24,1.09-5,1.09s-5-.49-5-1.09,2.23-1.09,5-1.09S64.47,232.6,64.47,233.2Z"/><path class="cls-1" d="M64.47,233.2V237c0,.6-2.24,1.09-5,1.09s-5-.49-5-1.09v-3.8c0,.6,2.23,1.09,5,1.09S64.47,233.8,64.47,233.2Z"/><path class="cls-2" d="M98.88,233.2c0,.6-2.24,1.09-5,1.09s-5-.49-5-1.09,2.23-1.09,5-1.09S98.88,232.6,98.88,233.2Z"/><path class="cls-1" d="M98.88,233.2V237c0,.6-2.24,1.09-5,1.09s-5-.49-5-1.09v-3.8c0,.6,2.23,1.09,5,1.09S98.88,233.8,98.88,233.2Z"/><path class="cls-2" d="M133.29,233.2c0,.6-2.24,1.09-5,1.09s-5-.49-5-1.09,2.23-1.09,5-1.09S133.29,232.6,133.29,233.2Z"/><path class="cls-1" d="M133.29,233.2V237c0,.6-2.24,1.09-5,1.09s-5-.49-5-1.09v-3.8c0,.6,2.23,1.09,5,1.09S133.29,233.8,133.29,233.2Z"/><path class="cls-2" d="M167.7,233.2c0,.6-2.24,1.09-5,1.09s-5-.49-5-1.09,2.23-1.09,5-1.09S167.7,232.6,167.7,233.2Z"/><path class="cls-1" d="M167.7,233.2V237c0,.6-2.24,1.09-5,1.09s-5-.49-5-1.09v-3.8c0,.6,2.23,1.09,5,1.09S167.7,233.8,167.7,233.2Z"/><path class="cls-2" d="M202.11,233.2c0,.6-2.24,1.09-5,1.09s-5-.49-5-1.09,2.23-1.09,5-1.09S202.11,232.6,202.11,233.2Z"/><path class="cls-1" d="M202.11,233.2V237c0,.6-2.24,1.09-5,1.09s-5-.49-5-1.09v-3.8c0,.6,2.23,1.09,5,1.09S202.11,233.8,202.11,233.2Z"/><path class="cls-2" d="M236.52,233.2c0,.6-2.24,1.09-5,1.09s-5-.49-5-1.09,2.23-1.09,5-1.09S236.52,232.6,236.52,233.2Z"/><path class="cls-1" d="M236.52,233.2V237c0,.6-2.24,1.09-5,1.09s-5-.49-5-1.09v-3.8c0,.6,2.23,1.09,5,1.09S236.52,233.8,236.52,233.2Z"/><path class="cls-2" d="M270.93,233.2c0,.6-2.24,1.09-5,1.09s-5-.49-5-1.09,2.23-1.09,5-1.09S270.93,232.6,270.93,233.2Z"/><path class="cls-1" d="M270.93,233.2V237c0,.6-2.24,1.09-5,1.09s-5-.49-5-1.09v-3.8c0,.6,2.23,1.09,5,1.09S270.93,233.8,270.93,233.2Z"/><path class="cls-2" d="M305.34,233.2c0,.6-2.24,1.09-5,1.09s-5-.49-5-1.09,2.23-1.09,5-1.09S305.34,232.6,305.34,233.2Z"/><path class="cls-1" d="M305.34,233.2V237c0,.6-2.24,1.09-5,1.09s-5-.49-5-1.09v-3.8c0,.6,2.23,1.09,5,1.09S305.34,233.8,305.34,233.2Z"/><path class="cls-2" d="M339.75,233.2c0,.6-2.24,1.09-5,1.09s-5-.49-5-1.09,2.23-1.09,5-1.09S339.75,232.6,339.75,233.2Z"/><path class="cls-1" d="M339.75,233.2V237c0,.6-2.24,1.09-5,1.09s-5-.49-5-1.09v-3.8c0,.6,2.23,1.09,5,1.09S339.75,233.8,339.75,233.2Z"/><path class="cls-2" d="M371.19,233.2c0,.6-2.23,1.09-5,1.09s-5-.49-5-1.09,2.24-1.09,5-1.09S371.19,232.6,371.19,233.2Z"/><path class="cls-1" d="M371.19,233.2V237c0,.6-2.23,1.09-5,1.09s-5-.49-5-1.09v-3.8c0,.6,2.24,1.09,5,1.09S371.19,233.8,371.19,233.2Z"/><rect class="cls-1" x="6.06" y="15.84" width="28.73" height="225.79"/><polygon class="cls-2" points="45.22 5.41 45.22 231.2 34.79 241.63 34.79 15.84 45.22 5.41"/><polygon class="cls-1" points="45.22 5.41 34.79 15.84 6.06 15.84 16.5 5.41 45.22 5.41"/><path class="cls-1" d="M31.21,7.36c0,.6-2.23,1.09-5,1.09s-5-.49-5-1.09,2.23-1.1,5-1.1S31.21,6.75,31.21,7.36Z"/><path class="cls-1" d="M31.21,7.36v3.79c0,.6-2.23,1.09-5,1.09s-5-.49-5-1.09V7.36c0,.6,2.23,1.09,5,1.09S31.21,8,31.21,7.36Z"/><rect class="cls-1" x="343.91" y="15.84" width="28.73" height="225.79"/><polygon class="cls-2" points="383.07 5.41 383.07 231.2 372.63 241.63 372.63 15.84 383.07 5.41"/><polygon class="cls-1" points="383.07 5.41 372.63 15.84 343.91 15.84 354.34 5.41 383.07 5.41"/><path class="cls-1" d="M369.06,7.36c0,.6-2.24,1.09-5,1.09s-5-.49-5-1.09,2.23-1.1,5-1.1S369.06,6.75,369.06,7.36Z"/><path class="cls-1" d="M369.06,7.36v3.79c0,.6-2.24,1.09-5,1.09s-5-.49-5-1.09V7.36c0,.6,2.23,1.09,5,1.09S369.06,8,369.06,7.36Z"/><rect class="cls-1" x="4.91" y="15.84" width="367.73" height="12.16"/><polygon class="cls-2" points="383.07 5.41 383.07 17.57 372.63 28 372.63 15.84 383.07 5.41"/><polygon class="cls-2" points="383.07 5.41 372.63 15.84 4.91 15.84 15.34 5.41 383.07 5.41"/><path class="cls-2" d="M30.06,7.36c0,.6-2.24,1.09-5,1.09s-5-.49-5-1.09,2.23-1.1,5-1.1S30.06,6.75,30.06,7.36Z"/><path class="cls-1" d="M30.06,7.36v3.79c0,.6-2.24,1.09-5,1.09s-5-.49-5-1.09V7.36c0,.6,2.23,1.09,5,1.09S30.06,8,30.06,7.36Z"/><path class="cls-2" d="M64.47,7.36c0,.6-2.24,1.09-5,1.09s-5-.49-5-1.09,2.23-1.1,5-1.1S64.47,6.75,64.47,7.36Z"/><path class="cls-1" d="M64.47,7.36v3.79c0,.6-2.24,1.09-5,1.09s-5-.49-5-1.09V7.36c0,.6,2.23,1.09,5,1.09S64.47,8,64.47,7.36Z"/><path class="cls-2" d="M98.88,7.36c0,.6-2.24,1.09-5,1.09s-5-.49-5-1.09,2.23-1.1,5-1.1S98.88,6.75,98.88,7.36Z"/><path class="cls-1" d="M98.88,7.36v3.79c0,.6-2.24,1.09-5,1.09s-5-.49-5-1.09V7.36c0,.6,2.23,1.09,5,1.09S98.88,8,98.88,7.36Z"/><path class="cls-2" d="M133.29,7.36c0,.6-2.24,1.09-5,1.09s-5-.49-5-1.09,2.23-1.1,5-1.1S133.29,6.75,133.29,7.36Z"/><path class="cls-1" d="M133.29,7.36v3.79c0,.6-2.24,1.09-5,1.09s-5-.49-5-1.09V7.36c0,.6,2.23,1.09,5,1.09S133.29,8,133.29,7.36Z"/><path class="cls-2" d="M167.7,7.36c0,.6-2.24,1.09-5,1.09s-5-.49-5-1.09,2.23-1.1,5-1.1S167.7,6.75,167.7,7.36Z"/><path class="cls-1" d="M167.7,7.36v3.79c0,.6-2.24,1.09-5,1.09s-5-.49-5-1.09V7.36c0,.6,2.23,1.09,5,1.09S167.7,8,167.7,7.36Z"/><path class="cls-2" d="M202.11,7.36c0,.6-2.24,1.09-5,1.09s-5-.49-5-1.09,2.23-1.1,5-1.1S202.11,6.75,202.11,7.36Z"/><path class="cls-1" d="M202.11,7.36v3.79c0,.6-2.24,1.09-5,1.09s-5-.49-5-1.09V7.36c0,.6,2.23,1.09,5,1.09S202.11,8,202.11,7.36Z"/><path class="cls-2" d="M236.52,7.36c0,.6-2.24,1.09-5,1.09s-5-.49-5-1.09,2.23-1.1,5-1.1S236.52,6.75,236.52,7.36Z"/><path class="cls-1" d="M236.52,7.36v3.79c0,.6-2.24,1.09-5,1.09s-5-.49-5-1.09V7.36c0,.6,2.23,1.09,5,1.09S236.52,8,236.52,7.36Z"/><path class="cls-2" d="M270.93,7.36c0,.6-2.24,1.09-5,1.09s-5-.49-5-1.09,2.23-1.1,5-1.1S270.93,6.75,270.93,7.36Z"/><path class="cls-1" d="M270.93,7.36v3.79c0,.6-2.24,1.09-5,1.09s-5-.49-5-1.09V7.36c0,.6,2.23,1.09,5,1.09S270.93,8,270.93,7.36Z"/><path class="cls-2" d="M305.34,7.36c0,.6-2.24,1.09-5,1.09s-5-.49-5-1.09,2.23-1.1,5-1.1S305.34,6.75,305.34,7.36Z"/><path class="cls-1" d="M305.34,7.36v3.79c0,.6-2.24,1.09-5,1.09s-5-.49-5-1.09V7.36c0,.6,2.23,1.09,5,1.09S305.34,8,305.34,7.36Z"/><path class="cls-2" d="M339.75,7.36c0,.6-2.24,1.09-5,1.09s-5-.49-5-1.09,2.23-1.1,5-1.1S339.75,6.75,339.75,7.36Z"/><path class="cls-1" d="M339.75,7.36v3.79c0,.6-2.24,1.09-5,1.09s-5-.49-5-1.09V7.36c0,.6,2.23,1.09,5,1.09S339.75,8,339.75,7.36Z"/><path class="cls-2" d="M371.19,7.36c0,.6-2.23,1.09-5,1.09s-5-.49-5-1.09,2.24-1.1,5-1.1S371.19,6.75,371.19,7.36Z"/><path class="cls-1" d="M371.19,7.36v3.79c0,.6-2.23,1.09-5,1.09s-5-.49-5-1.09V7.36c0,.6,2.24,1.09,5,1.09S371.19,8,371.19,7.36Z"/></g></svg>