<svg xmlns="http://www.w3.org/2000/svg" viewBox="0 0 791.07 853.46"><defs><style>.cls-1{fill:#666;}.cls-1,.cls-2,.cls-3,.cls-4,.cls-5,.cls-6,.cls-7{stroke:#000;stroke-linejoin:round;}.cls-2{fill:#4d4d4d;}.cls-3{fill:#0000bf;}.cls-4{fill:blue;}.cls-5{fill:#c1272d;}.cls-6{fill:#911d22;}.cls-7{fill:#2d2d2d;}</style></defs><g id="Elementer"><path class="cls-1" d="M230.73,635.86H212.18c1.32-.85,5-1.45,9.28-1.45S229.41,635,230.73,635.86Z"/><path class="cls-1" d="M251.72,616.1v7.43c0,1.18-4.37,2.14-9.79,2.14s-9.79-1-9.79-2.14V616.1c0-1.2,4.37-2.16,9.79-2.16S251.72,614.9,251.72,616.1Z"/><path class="cls-1" d="M298.25,635.86H279.73c1.33-.85,5-1.45,9.26-1.45S296.94,635,298.25,635.86Z"/><path class="cls-1" d="M319.25,616.1v7.43c0,1.18-4.38,2.14-9.79,2.14s-9.79-1-9.79-2.14V616.1c0-1.2,4.37-2.16,9.79-2.16S319.25,614.9,319.25,616.1Z"/><path class="cls-1" d="M365.78,635.86H347.23c1.32-.85,5-1.45,9.29-1.45S364.46,635,365.78,635.86Z"/><path class="cls-1" d="M386.78,616.1v7.43c0,1.18-4.38,2.14-9.79,2.14s-9.8-1-9.8-2.14V616.1c0-1.2,4.38-2.16,9.8-2.16S386.78,614.9,386.78,616.1Z"/><path class="cls-1" d="M433.31,635.86H414.76c1.32-.85,5-1.45,9.26-1.45S432,635,433.31,635.86Z"/><path class="cls-1" d="M454.3,616.1v7.43c0,1.18-4.37,2.14-9.79,2.14s-9.79-1-9.79-2.14V616.1c0-1.2,4.38-2.16,9.79-2.16S454.3,614.9,454.3,616.1Z"/><path class="cls-1" d="M500.81,635.86H482.29c1.31-.85,5-1.45,9.26-1.45S499.48,635,500.81,635.86Z"/><path class="cls-1" d="M521.83,616.1v7.43c0,1.18-4.37,2.14-9.79,2.14s-9.79-1-9.79-2.14V616.1c0-1.2,4.37-2.16,9.79-2.16S521.83,614.9,521.83,616.1Z"/><path class="cls-1" d="M568.36,635.86H549.82c1.31-.85,5-1.45,9.26-1.45S567.05,635,568.36,635.86Z"/><path class="cls-1" d="M589.36,616.1v7.43c0,1.18-4.38,2.14-9.79,2.14s-9.8-1-9.8-2.14V616.1c0-1.2,4.38-2.16,9.8-2.16S589.36,614.9,589.36,616.1Z"/><path class="cls-1" d="M272.49,595.33v7.46c0,1.18-4.4,2.14-9.8,2.14s-9.81-1-9.81-2.14v-7.46c0-1.17,4.4-2.16,9.81-2.16S272.49,594.16,272.49,595.33Z"/><path class="cls-1" d="M340,595.33v7.46c0,1.18-4.39,2.14-9.81,2.14s-9.79-1-9.79-2.14v-7.46c0-1.17,4.39-2.16,9.79-2.16S340,594.16,340,595.33Z"/><path class="cls-1" d="M407.54,595.33v7.46c0,1.18-4.4,2.14-9.81,2.14s-9.79-1-9.79-2.14v-7.46c0-1.17,4.39-2.16,9.79-2.16S407.54,594.16,407.54,595.33Z"/><path class="cls-1" d="M475.07,595.33v7.46c0,1.18-4.4,2.14-9.81,2.14s-9.8-1-9.8-2.14v-7.46c0-1.17,4.4-2.16,9.8-2.16S475.07,594.16,475.07,595.33Z"/><path class="cls-1" d="M542.59,595.33v7.46c0,1.18-4.39,2.14-9.81,2.14s-9.79-1-9.79-2.14v-7.46c0-1.17,4.4-2.16,9.79-2.16S542.59,594.16,542.59,595.33Z"/><path class="cls-1" d="M610.12,595.33v7.46c0,1.18-4.39,2.14-9.81,2.14s-9.79-1-9.79-2.14v-7.46c0-1.17,4.39-2.16,9.79-2.16S610.12,594.16,610.12,595.33Z"/><path class="cls-2" d="M272.49,595.33c0,1.18-4.4,2.14-9.8,2.14s-9.81-1-9.81-2.14,4.4-2.16,9.81-2.16S272.49,594.16,272.49,595.33Z"/><path class="cls-1" d="M272.49,595.33v7.46c0,1.18-4.4,2.14-9.8,2.14s-9.81-1-9.81-2.14v-7.46c0,1.18,4.4,2.14,9.81,2.14S272.49,596.51,272.49,595.33Z"/><path class="cls-2" d="M340,595.33c0,1.18-4.39,2.14-9.81,2.14s-9.79-1-9.79-2.14,4.39-2.16,9.79-2.16S340,594.16,340,595.33Z"/><path class="cls-1" d="M340,595.33v7.46c0,1.18-4.39,2.14-9.81,2.14s-9.79-1-9.79-2.14v-7.46c0,1.18,4.39,2.14,9.79,2.14S340,596.51,340,595.33Z"/><path class="cls-1" d="M407.54,595.33c0,1.18-4.4,2.14-9.81,2.14s-9.79-1-9.79-2.14,4.39-2.16,9.79-2.16S407.54,594.16,407.54,595.33Z"/><path class="cls-1" d="M407.54,595.33v7.46c0,1.18-4.4,2.14-9.81,2.14s-9.79-1-9.79-2.14v-7.46c0,1.18,4.39,2.14,9.79,2.14S407.54,596.51,407.54,595.33Z"/><path class="cls-1" d="M475.07,595.33c0,1.18-4.4,2.14-9.81,2.14s-9.8-1-9.8-2.14,4.4-2.16,9.8-2.16S475.07,594.16,475.07,595.33Z"/><path class="cls-1" d="M475.07,595.33v7.46c0,1.18-4.4,2.14-9.81,2.14s-9.8-1-9.8-2.14v-7.46c0,1.18,4.4,2.14,9.8,2.14S475.07,596.51,475.07,595.33Z"/><path class="cls-2" d="M542.59,595.33c0,1.18-4.39,2.14-9.81,2.14s-9.79-1-9.79-2.14,4.4-2.16,9.79-2.16S542.59,594.16,542.59,595.33Z"/><path class="cls-1" d="M542.59,595.33v7.46c0,1.18-4.39,2.14-9.81,2.14s-9.79-1-9.79-2.14v-7.46c0,1.18,4.4,2.14,9.79,2.14S542.59,596.51,542.59,595.33Z"/><path class="cls-2" d="M610.12,595.33c0,1.18-4.39,2.14-9.81,2.14s-9.79-1-9.79-2.14,4.39-2.16,9.79-2.16S610.12,594.16,610.12,595.33Z"/><path class="cls-1" d="M610.12,595.33v7.46c0,1.18-4.39,2.14-9.81,2.14s-9.79-1-9.79-2.14v-7.46c0,1.18,4.39,2.14,9.79,2.14S610.12,596.51,610.12,595.33Z"/><path class="cls-1" d="M231.26,636.56V644c0,1.18-4.4,2.14-9.8,2.14s-9.81-1-9.81-2.14v-7.46c0-.25.18-.49.53-.7,1.32-.85,5-1.45,9.28-1.45s7.95.6,9.27,1.45C231.08,636.07,231.26,636.31,231.26,636.56Z"/><path class="cls-1" d="M298.78,636.56V644c0,1.18-4.39,2.14-9.79,2.14s-9.81-1-9.81-2.14v-7.46c0-.25.19-.49.55-.7,1.33-.85,5-1.45,9.26-1.45s7.95.6,9.26,1.45C298.61,636.07,298.78,636.31,298.78,636.56Z"/><path class="cls-1" d="M366.31,636.56V644c0,1.18-4.4,2.14-9.79,2.14s-9.82-1-9.82-2.14v-7.46c0-.25.18-.49.53-.7,1.32-.85,5-1.45,9.29-1.45s7.94.6,9.26,1.45C366.13,636.07,366.31,636.31,366.31,636.56Z"/><path class="cls-1" d="M433.84,636.56V644c0,1.18-4.4,2.14-9.82,2.14s-9.79-1-9.79-2.14v-7.46c0-.25.18-.49.53-.7,1.32-.85,5-1.45,9.26-1.45s8,.6,9.29,1.45C433.66,636.07,433.84,636.31,433.84,636.56Z"/><path class="cls-1" d="M501.36,636.56V644c0,1.18-4.39,2.14-9.81,2.14s-9.79-1-9.79-2.14v-7.46c0-.25.18-.49.53-.7,1.31-.85,5-1.45,9.26-1.45s7.93.6,9.26,1.45C501.17,636.07,501.36,636.31,501.36,636.56Z"/><path class="cls-1" d="M568.89,636.56V644c0,1.18-4.39,2.14-9.81,2.14s-9.79-1-9.79-2.14v-7.46c0-.25.17-.49.53-.7,1.31-.85,5-1.45,9.26-1.45s8,.6,9.28,1.45C568.71,636.07,568.89,636.31,568.89,636.56Z"/><path class="cls-1" d="M251.72,616.1v7.43c0,1.18-4.37,2.14-9.79,2.14s-9.79-1-9.79-2.14V616.1c0-1.2,4.37-2.16,9.79-2.16S251.72,614.9,251.72,616.1Z"/><path class="cls-1" d="M319.25,616.1v7.43c0,1.18-4.38,2.14-9.79,2.14s-9.79-1-9.79-2.14V616.1c0-1.2,4.37-2.16,9.79-2.16S319.25,614.9,319.25,616.1Z"/><path class="cls-1" d="M386.78,616.1v7.43c0,1.18-4.38,2.14-9.79,2.14s-9.8-1-9.8-2.14V616.1c0-1.2,4.38-2.16,9.8-2.16S386.78,614.9,386.78,616.1Z"/><path class="cls-1" d="M454.3,616.1v7.43c0,1.18-4.37,2.14-9.79,2.14s-9.79-1-9.79-2.14V616.1c0-1.2,4.38-2.16,9.79-2.16S454.3,614.9,454.3,616.1Z"/><path class="cls-1" d="M521.83,616.1v7.43c0,1.18-4.37,2.14-9.79,2.14s-9.79-1-9.79-2.14V616.1c0-1.2,4.37-2.16,9.79-2.16S521.83,614.9,521.83,616.1Z"/><path class="cls-1" d="M589.36,616.1v7.43c0,1.18-4.38,2.14-9.79,2.14s-9.8-1-9.8-2.14V616.1c0-1.2,4.38-2.16,9.8-2.16S589.36,614.9,589.36,616.1Z"/><path class="cls-2" d="M251.72,616.1c0,1.17-4.37,2.13-9.79,2.13s-9.79-1-9.79-2.13,4.37-2.16,9.79-2.16S251.72,614.9,251.72,616.1Z"/><path class="cls-1" d="M251.72,616.1v7.43c0,1.18-4.37,2.14-9.79,2.14s-9.79-1-9.79-2.14V616.1c0,1.17,4.37,2.13,9.79,2.13S251.72,617.27,251.72,616.1Z"/><path class="cls-2" d="M319.25,616.1c0,1.17-4.38,2.13-9.79,2.13s-9.79-1-9.79-2.13,4.37-2.16,9.79-2.16S319.25,614.9,319.25,616.1Z"/><path class="cls-1" d="M319.25,616.1v7.43c0,1.18-4.38,2.14-9.79,2.14s-9.79-1-9.79-2.14V616.1c0,1.17,4.37,2.13,9.79,2.13S319.25,617.27,319.25,616.1Z"/><path class="cls-1" d="M386.78,616.1c0,1.17-4.38,2.13-9.79,2.13s-9.8-1-9.8-2.13,4.38-2.16,9.8-2.16S386.78,614.9,386.78,616.1Z"/><path class="cls-1" d="M386.78,616.1v7.43c0,1.18-4.38,2.14-9.79,2.14s-9.8-1-9.8-2.14V616.1c0,1.17,4.38,2.13,9.8,2.13S386.78,617.27,386.78,616.1Z"/><path class="cls-1" d="M454.3,616.1c0,1.17-4.37,2.13-9.79,2.13s-9.79-1-9.79-2.13,4.38-2.16,9.79-2.16S454.3,614.9,454.3,616.1Z"/><path class="cls-1" d="M454.3,616.1v7.43c0,1.18-4.37,2.14-9.79,2.14s-9.79-1-9.79-2.14V616.1c0,1.17,4.38,2.13,9.79,2.13S454.3,617.27,454.3,616.1Z"/><path class="cls-2" d="M521.83,616.1c0,1.17-4.37,2.13-9.79,2.13s-9.79-1-9.79-2.13,4.37-2.16,9.79-2.16S521.83,614.9,521.83,616.1Z"/><path class="cls-1" d="M521.83,616.1v7.43c0,1.18-4.37,2.14-9.79,2.14s-9.79-1-9.79-2.14V616.1c0,1.17,4.37,2.13,9.79,2.13S521.83,617.27,521.83,616.1Z"/><path class="cls-2" d="M589.36,616.1c0,1.17-4.38,2.13-9.79,2.13s-9.8-1-9.8-2.13,4.38-2.16,9.8-2.16S589.36,614.9,589.36,616.1Z"/><path class="cls-1" d="M589.36,616.1v7.43c0,1.18-4.38,2.14-9.79,2.14s-9.8-1-9.8-2.14V616.1c0,1.17,4.38,2.13,9.8,2.13S589.36,617.27,589.36,616.1Z"/><rect class="cls-1" x="178.31" y="653.23" width="401.77" height="23.86"/><path class="cls-2" d="M580.08,653.23v23.86l20.47-20.49h0L621,636.13v-.27h.28l20.47-20.49V591.51Z"/><path class="cls-2" d="M240,591.51,219.54,612v.28h-.28L198.8,632.74l-20.49,20.49H580.08l61.7-61.72ZM231.26,644c0,1.18-4.4,2.14-9.8,2.14s-9.81-1-9.81-2.14v-7.46c0-.25.18-.49.53-.7,1.32-.85,5-1.45,9.28-1.45s7.95.6,9.27,1.45c.35.21.53.45.53.7Zm20.46-20.49c0,1.18-4.37,2.14-9.79,2.14s-9.79-1-9.79-2.14V616.1c0-1.2,4.37-2.16,9.79-2.16s9.79,1,9.79,2.16Zm20.77-20.74c0,1.18-4.4,2.14-9.8,2.14s-9.81-1-9.81-2.14v-7.46c0-1.17,4.4-2.16,9.81-2.16s9.8,1,9.8,2.16ZM298.78,644c0,1.18-4.39,2.14-9.79,2.14s-9.81-1-9.81-2.14v-7.46c0-.25.19-.49.55-.7,1.33-.85,5-1.45,9.26-1.45s7.95.6,9.26,1.45c.36.21.53.45.53.7Zm20.47-20.49c0,1.18-4.38,2.14-9.79,2.14s-9.79-1-9.79-2.14V616.1c0-1.2,4.37-2.16,9.79-2.16s9.79,1,9.79,2.16ZM340,602.79c0,1.18-4.39,2.14-9.81,2.14s-9.79-1-9.79-2.14v-7.46c0-1.17,4.39-2.16,9.79-2.16s9.81,1,9.81,2.16ZM366.31,644c0,1.18-4.4,2.14-9.79,2.14s-9.82-1-9.82-2.14v-7.46c0-.25.18-.49.53-.7,1.32-.85,5-1.45,9.29-1.45s7.94.6,9.26,1.45c.35.21.53.45.53.7Zm20.47-20.49c0,1.18-4.38,2.14-9.79,2.14s-9.8-1-9.8-2.14V616.1c0-1.2,4.38-2.16,9.8-2.16s9.79,1,9.79,2.16Zm20.76-20.74c0,1.18-4.4,2.14-9.81,2.14s-9.79-1-9.79-2.14v-7.46c0-1.17,4.39-2.16,9.79-2.16s9.81,1,9.81,2.16ZM433.84,644c0,1.18-4.4,2.14-9.82,2.14s-9.79-1-9.79-2.14v-7.46c0-.25.18-.49.53-.7,1.32-.85,5-1.45,9.26-1.45s8,.6,9.29,1.45c.35.21.53.45.53.7Zm20.46-20.49c0,1.18-4.37,2.14-9.79,2.14s-9.79-1-9.79-2.14V616.1c0-1.2,4.38-2.16,9.79-2.16s9.79,1,9.79,2.16Zm20.77-20.74c0,1.18-4.4,2.14-9.81,2.14s-9.8-1-9.8-2.14v-7.46c0-1.17,4.4-2.16,9.8-2.16s9.81,1,9.81,2.16ZM501.36,644c0,1.18-4.39,2.14-9.81,2.14s-9.79-1-9.79-2.14v-7.46c0-.25.18-.49.53-.7,1.31-.85,5-1.45,9.26-1.45s7.93.6,9.26,1.45c.36.21.55.45.55.7Zm20.47-20.49c0,1.18-4.37,2.14-9.79,2.14s-9.79-1-9.79-2.14V616.1c0-1.2,4.37-2.16,9.79-2.16s9.79,1,9.79,2.16Zm20.76-20.74c0,1.18-4.39,2.14-9.81,2.14s-9.79-1-9.79-2.14v-7.46c0-1.17,4.4-2.16,9.79-2.16s9.81,1,9.81,2.16ZM568.89,644c0,1.18-4.39,2.14-9.81,2.14s-9.79-1-9.79-2.14v-7.46c0-.25.17-.49.53-.7,1.31-.85,5-1.45,9.26-1.45s8,.6,9.28,1.45c.35.21.53.45.53.7Zm20.47-20.49c0,1.18-4.38,2.14-9.79,2.14s-9.8-1-9.8-2.14V616.1c0-1.2,4.38-2.16,9.8-2.16s9.79,1,9.79,2.16Zm10.95-18.6c-5.4,0-9.79-1-9.79-2.14v-7.46c0-1.17,4.39-2.16,9.79-2.16s9.81,1,9.81,2.16v7.46C610.12,604,605.73,604.93,600.31,604.93Z"/><path class="cls-1" d="M231.26,636.56V644c0,1.18-4.4,2.14-9.8,2.14s-9.81-1-9.81-2.14v-7.46c0-.25.18-.49.53-.7,1.32-.85,5-1.45,9.28-1.45s7.95.6,9.27,1.45C231.08,636.07,231.26,636.31,231.26,636.56Z"/><path class="cls-1" d="M298.78,636.56V644c0,1.18-4.39,2.14-9.79,2.14s-9.81-1-9.81-2.14v-7.46c0-.25.19-.49.55-.7,1.33-.85,5-1.45,9.26-1.45s7.95.6,9.26,1.45C298.61,636.07,298.78,636.31,298.78,636.56Z"/><path class="cls-1" d="M366.31,636.56V644c0,1.18-4.4,2.14-9.79,2.14s-9.82-1-9.82-2.14v-7.46c0-.25.18-.49.53-.7,1.32-.85,5-1.45,9.29-1.45s7.94.6,9.26,1.45C366.13,636.07,366.31,636.31,366.31,636.56Z"/><path class="cls-1" d="M433.84,636.56V644c0,1.18-4.4,2.14-9.82,2.14s-9.79-1-9.79-2.14v-7.46c0-.25.18-.49.53-.7,1.32-.85,5-1.45,9.26-1.45s8,.6,9.29,1.45C433.66,636.07,433.84,636.31,433.84,636.56Z"/><path class="cls-1" d="M501.36,636.56V644c0,1.18-4.39,2.14-9.81,2.14s-9.79-1-9.79-2.14v-7.46c0-.25.18-.49.53-.7,1.31-.85,5-1.45,9.26-1.45s7.93.6,9.26,1.45C501.17,636.07,501.36,636.31,501.36,636.56Z"/><path class="cls-1" d="M568.89,636.56V644c0,1.18-4.39,2.14-9.81,2.14s-9.79-1-9.79-2.14v-7.46c0-.25.17-.49.53-.7,1.31-.85,5-1.45,9.26-1.45s8,.6,9.28,1.45C568.71,636.07,568.89,636.31,568.89,636.56Z"/><path class="cls-2" d="M231.26,636.56c0,1.18-4.4,2.14-9.8,2.14s-9.81-1-9.81-2.14c0-.25.18-.49.53-.7,1.32-.85,5-1.45,9.28-1.45s7.95.6,9.27,1.45C231.08,636.07,231.26,636.31,231.26,636.56Z"/><path class="cls-1" d="M231.26,636.56V644c0,1.18-4.4,2.14-9.8,2.14s-9.81-1-9.81-2.14v-7.46c0,1.18,4.4,2.14,9.81,2.14S231.26,637.74,231.26,636.56Z"/><path class="cls-2" d="M298.78,636.56c0,1.18-4.39,2.14-9.79,2.14s-9.81-1-9.81-2.14c0-.25.19-.49.55-.7,1.33-.85,5-1.45,9.26-1.45s7.95.6,9.26,1.45C298.61,636.07,298.78,636.31,298.78,636.56Z"/><path class="cls-1" d="M298.78,636.56V644c0,1.18-4.39,2.14-9.79,2.14s-9.81-1-9.81-2.14v-7.46c0,1.18,4.39,2.14,9.81,2.14S298.78,637.74,298.78,636.56Z"/><path class="cls-2" d="M366.31,636.56c0,1.18-4.4,2.14-9.79,2.14s-9.82-1-9.82-2.14c0-.25.18-.49.53-.7,1.32-.85,5-1.45,9.29-1.45s7.94.6,9.26,1.45C366.13,636.07,366.31,636.31,366.31,636.56Z"/><path class="cls-1" d="M366.31,636.56V644c0,1.18-4.4,2.14-9.79,2.14s-9.82-1-9.82-2.14v-7.46c0,1.18,4.4,2.14,9.82,2.14S366.31,637.74,366.31,636.56Z"/><path class="cls-2" d="M433.84,636.56c0,1.18-4.4,2.14-9.82,2.14s-9.79-1-9.79-2.14c0-.25.18-.49.53-.7,1.32-.85,5-1.45,9.26-1.45s8,.6,9.29,1.45C433.66,636.07,433.84,636.31,433.84,636.56Z"/><path class="cls-1" d="M433.84,636.56V644c0,1.18-4.4,2.14-9.82,2.14s-9.79-1-9.79-2.14v-7.46c0,1.18,4.4,2.14,9.79,2.14S433.84,637.74,433.84,636.56Z"/><path class="cls-2" d="M501.36,636.56c0,1.18-4.39,2.14-9.81,2.14s-9.79-1-9.79-2.14c0-.25.18-.49.53-.7,1.31-.85,5-1.45,9.26-1.45s7.93.6,9.26,1.45C501.17,636.07,501.36,636.31,501.36,636.56Z"/><path class="cls-1" d="M501.36,636.56V644c0,1.18-4.39,2.14-9.81,2.14s-9.79-1-9.79-2.14v-7.46c0,1.18,4.39,2.14,9.79,2.14S501.36,637.74,501.36,636.56Z"/><path class="cls-2" d="M568.89,636.56c0,1.18-4.39,2.14-9.81,2.14s-9.79-1-9.79-2.14c0-.25.17-.49.53-.7,1.31-.85,5-1.45,9.26-1.45s8,.6,9.28,1.45C568.71,636.07,568.89,636.31,568.89,636.56Z"/><path class="cls-1" d="M568.89,636.56V644c0,1.18-4.39,2.14-9.81,2.14s-9.79-1-9.79-2.14v-7.46c0,1.18,4.39,2.14,9.79,2.14S568.89,637.74,568.89,636.56Z"/><path class="cls-1" d="M139.93,741.81H121.39c1.31-.85,5-1.45,9.28-1.45S138.62,741,139.93,741.81Z"/><path class="cls-1" d="M160.93,722.05v7.43c0,1.18-4.37,2.14-9.79,2.14s-9.79-1-9.79-2.14v-7.43c0-1.2,4.37-2.16,9.79-2.16S160.93,720.85,160.93,722.05Z"/><path class="cls-1" d="M207.46,741.81H188.94c1.33-.85,5-1.45,9.26-1.45S206.15,741,207.46,741.81Z"/><path class="cls-1" d="M228.46,722.05v7.43c0,1.18-4.38,2.14-9.79,2.14s-9.8-1-9.8-2.14v-7.43c0-1.2,4.38-2.16,9.8-2.16S228.46,720.85,228.46,722.05Z"/><path class="cls-1" d="M275,741.81H256.44c1.32-.85,5-1.45,9.29-1.45S273.67,741,275,741.81Z"/><path class="cls-1" d="M296,722.05v7.43c0,1.18-4.38,2.14-9.8,2.14s-9.79-1-9.79-2.14v-7.43c0-1.2,4.38-2.16,9.79-2.16S296,720.85,296,722.05Z"/><path class="cls-1" d="M342.51,741.81H324c1.31-.85,5-1.45,9.26-1.45S341.2,741,342.51,741.81Z"/><path class="cls-1" d="M363.51,722.05v7.43c0,1.18-4.37,2.14-9.79,2.14s-9.79-1-9.79-2.14v-7.43c0-1.2,4.37-2.16,9.79-2.16S363.51,720.85,363.51,722.05Z"/><path class="cls-1" d="M410,741.81H391.5c1.31-.85,5-1.45,9.26-1.45S408.69,741,410,741.81Z"/><path class="cls-1" d="M431,722.05v7.43c0,1.18-4.38,2.14-9.79,2.14s-9.79-1-9.79-2.14v-7.43c0-1.2,4.37-2.16,9.79-2.16S431,720.85,431,722.05Z"/><path class="cls-1" d="M477.57,741.81H459c1.32-.85,5-1.45,9.27-1.45S476.25,741,477.57,741.81Z"/><path class="cls-1" d="M498.57,722.05v7.43c0,1.18-4.38,2.14-9.8,2.14s-9.79-1-9.79-2.14v-7.43c0-1.2,4.38-2.16,9.79-2.16S498.57,720.85,498.57,722.05Z"/><path class="cls-1" d="M181.69,701.28v7.46c0,1.18-4.39,2.14-9.79,2.14s-9.81-1-9.81-2.14v-7.46c0-1.17,4.4-2.15,9.81-2.15S181.69,700.11,181.69,701.28Z"/><path class="cls-1" d="M249.22,701.28v7.46c0,1.18-4.39,2.14-9.81,2.14s-9.79-1-9.79-2.14v-7.46c0-1.17,4.39-2.15,9.79-2.15S249.22,700.11,249.22,701.28Z"/><path class="cls-1" d="M316.75,701.28v7.46c0,1.18-4.4,2.14-9.81,2.14s-9.8-1-9.8-2.14v-7.46c0-1.17,4.4-2.15,9.8-2.15S316.75,700.11,316.75,701.28Z"/><path class="cls-1" d="M384.28,701.28v7.46c0,1.18-4.4,2.14-9.82,2.14s-9.79-1-9.79-2.14v-7.46c0-1.17,4.4-2.15,9.79-2.15S384.28,700.11,384.28,701.28Z"/><path class="cls-1" d="M451.8,701.28v7.46c0,1.18-4.39,2.14-9.81,2.14s-9.79-1-9.79-2.14v-7.46c0-1.17,4.39-2.15,9.79-2.15S451.8,700.11,451.8,701.28Z"/><path class="cls-1" d="M519.33,701.28v7.46c0,1.18-4.4,2.14-9.81,2.14s-9.79-1-9.79-2.14v-7.46c0-1.17,4.39-2.15,9.79-2.15S519.33,700.11,519.33,701.28Z"/><path class="cls-1" d="M181.69,701.28c0,1.18-4.39,2.14-9.79,2.14s-9.81-1-9.81-2.14,4.4-2.15,9.81-2.15S181.69,700.11,181.69,701.28Z"/><path class="cls-1" d="M181.69,701.28v7.46c0,1.18-4.39,2.14-9.79,2.14s-9.81-1-9.81-2.14v-7.46c0,1.18,4.4,2.14,9.81,2.14S181.69,702.46,181.69,701.28Z"/><path class="cls-1" d="M249.22,701.28c0,1.18-4.39,2.14-9.81,2.14s-9.79-1-9.79-2.14,4.39-2.15,9.79-2.15S249.22,700.11,249.22,701.28Z"/><path class="cls-1" d="M249.22,701.28v7.46c0,1.18-4.39,2.14-9.81,2.14s-9.79-1-9.79-2.14v-7.46c0,1.18,4.39,2.14,9.79,2.14S249.22,702.46,249.22,701.28Z"/><path class="cls-1" d="M316.75,701.28c0,1.18-4.4,2.14-9.81,2.14s-9.8-1-9.8-2.14,4.4-2.15,9.8-2.15S316.75,700.11,316.75,701.28Z"/><path class="cls-1" d="M316.75,701.28v7.46c0,1.18-4.4,2.14-9.81,2.14s-9.8-1-9.8-2.14v-7.46c0,1.18,4.4,2.14,9.8,2.14S316.75,702.46,316.75,701.28Z"/><path class="cls-1" d="M384.28,701.28c0,1.18-4.4,2.14-9.82,2.14s-9.79-1-9.79-2.14,4.4-2.15,9.79-2.15S384.28,700.11,384.28,701.28Z"/><path class="cls-1" d="M384.28,701.28v7.46c0,1.18-4.4,2.14-9.82,2.14s-9.79-1-9.79-2.14v-7.46c0,1.18,4.4,2.14,9.79,2.14S384.28,702.46,384.28,701.28Z"/><path class="cls-1" d="M451.8,701.28c0,1.18-4.39,2.14-9.81,2.14s-9.79-1-9.79-2.14,4.39-2.15,9.79-2.15S451.8,700.11,451.8,701.28Z"/><path class="cls-1" d="M451.8,701.28v7.46c0,1.18-4.39,2.14-9.81,2.14s-9.79-1-9.79-2.14v-7.46c0,1.18,4.39,2.14,9.79,2.14S451.8,702.46,451.8,701.28Z"/><path class="cls-1" d="M519.33,701.28c0,1.18-4.4,2.14-9.81,2.14s-9.79-1-9.79-2.14,4.39-2.15,9.79-2.15S519.33,700.11,519.33,701.28Z"/><path class="cls-1" d="M519.33,701.28v7.46c0,1.18-4.4,2.14-9.81,2.14s-9.79-1-9.79-2.14v-7.46c0,1.18,4.39,2.14,9.79,2.14S519.33,702.46,519.33,701.28Z"/><path class="cls-1" d="M140.46,742.52V750c0,1.18-4.39,2.14-9.79,2.14s-9.81-1-9.81-2.14v-7.45c0-.26.18-.5.53-.71,1.31-.85,5-1.45,9.28-1.45s8,.6,9.26,1.45C140.29,742,140.46,742.26,140.46,742.52Z"/><path class="cls-1" d="M208,742.52V750c0,1.18-4.4,2.14-9.79,2.14s-9.81-1-9.81-2.14v-7.45c0-.26.19-.5.55-.71,1.33-.85,5-1.45,9.26-1.45s8,.6,9.26,1.45C207.81,742,208,742.26,208,742.52Z"/><path class="cls-1" d="M275.52,742.52V750c0,1.18-4.4,2.14-9.79,2.14s-9.82-1-9.82-2.14v-7.45c0-.26.18-.5.53-.71,1.32-.85,5-1.45,9.29-1.45s7.94.6,9.26,1.45C275.34,742,275.52,742.26,275.52,742.52Z"/><path class="cls-1" d="M343,742.52V750c0,1.18-4.39,2.14-9.81,2.14s-9.79-1-9.79-2.14v-7.45c0-.26.18-.5.53-.71,1.31-.85,5-1.45,9.26-1.45s8,.6,9.28,1.45C342.87,742,343,742.26,343,742.52Z"/><path class="cls-1" d="M410.57,742.52V750c0,1.18-4.39,2.14-9.81,2.14s-9.79-1-9.79-2.14v-7.45c0-.26.17-.5.53-.71,1.31-.85,5-1.45,9.26-1.45s7.93.6,9.26,1.45C410.38,742,410.57,742.26,410.57,742.52Z"/><path class="cls-1" d="M478.1,742.52V750c0,1.18-4.4,2.14-9.81,2.14s-9.8-1-9.8-2.14v-7.45c0-.26.18-.5.53-.71,1.32-.85,5-1.45,9.27-1.45s8,.6,9.28,1.45C477.92,742,478.1,742.26,478.1,742.52Z"/><path class="cls-1" d="M160.93,722.05v7.43c0,1.18-4.37,2.14-9.79,2.14s-9.79-1-9.79-2.14v-7.43c0-1.2,4.37-2.16,9.79-2.16S160.93,720.85,160.93,722.05Z"/><path class="cls-1" d="M228.46,722.05v7.43c0,1.18-4.38,2.14-9.79,2.14s-9.8-1-9.8-2.14v-7.43c0-1.2,4.38-2.16,9.8-2.16S228.46,720.85,228.46,722.05Z"/><path class="cls-1" d="M296,722.05v7.43c0,1.18-4.38,2.14-9.8,2.14s-9.79-1-9.79-2.14v-7.43c0-1.2,4.38-2.16,9.79-2.16S296,720.85,296,722.05Z"/><path class="cls-1" d="M363.51,722.05v7.43c0,1.18-4.37,2.14-9.79,2.14s-9.79-1-9.79-2.14v-7.43c0-1.2,4.37-2.16,9.79-2.16S363.51,720.85,363.51,722.05Z"/><path class="cls-1" d="M431,722.05v7.43c0,1.18-4.38,2.14-9.79,2.14s-9.79-1-9.79-2.14v-7.43c0-1.2,4.37-2.16,9.79-2.16S431,720.85,431,722.05Z"/><path class="cls-1" d="M498.57,722.05v7.43c0,1.18-4.38,2.14-9.8,2.14s-9.79-1-9.79-2.14v-7.43c0-1.2,4.38-2.16,9.79-2.16S498.57,720.85,498.57,722.05Z"/><path class="cls-1" d="M160.93,722.05c0,1.17-4.37,2.14-9.79,2.14s-9.79-1-9.79-2.14,4.37-2.16,9.79-2.16S160.93,720.85,160.93,722.05Z"/><path class="cls-1" d="M160.93,722.05v7.43c0,1.18-4.37,2.14-9.79,2.14s-9.79-1-9.79-2.14v-7.43c0,1.17,4.37,2.14,9.79,2.14S160.93,723.22,160.93,722.05Z"/><path class="cls-1" d="M228.46,722.05c0,1.17-4.38,2.14-9.79,2.14s-9.8-1-9.8-2.14,4.38-2.16,9.8-2.16S228.46,720.85,228.46,722.05Z"/><path class="cls-1" d="M228.46,722.05v7.43c0,1.18-4.38,2.14-9.79,2.14s-9.8-1-9.8-2.14v-7.43c0,1.17,4.38,2.14,9.8,2.14S228.46,723.22,228.46,722.05Z"/><path class="cls-1" d="M296,722.05c0,1.17-4.38,2.14-9.8,2.14s-9.79-1-9.79-2.14,4.38-2.16,9.79-2.16S296,720.85,296,722.05Z"/><path class="cls-1" d="M296,722.05v7.43c0,1.18-4.38,2.14-9.8,2.14s-9.79-1-9.79-2.14v-7.43c0,1.17,4.38,2.14,9.79,2.14S296,723.22,296,722.05Z"/><path class="cls-1" d="M363.51,722.05c0,1.17-4.37,2.14-9.79,2.14s-9.79-1-9.79-2.14,4.37-2.16,9.79-2.16S363.51,720.85,363.51,722.05Z"/><path class="cls-1" d="M363.51,722.05v7.43c0,1.18-4.37,2.14-9.79,2.14s-9.79-1-9.79-2.14v-7.43c0,1.17,4.37,2.14,9.79,2.14S363.51,723.22,363.51,722.05Z"/><path class="cls-1" d="M431,722.05c0,1.17-4.38,2.14-9.79,2.14s-9.79-1-9.79-2.14,4.37-2.16,9.79-2.16S431,720.85,431,722.05Z"/><path class="cls-1" d="M431,722.05v7.43c0,1.18-4.38,2.14-9.79,2.14s-9.79-1-9.79-2.14v-7.43c0,1.17,4.37,2.14,9.79,2.14S431,723.22,431,722.05Z"/><path class="cls-1" d="M498.57,722.05c0,1.17-4.38,2.14-9.8,2.14s-9.79-1-9.79-2.14,4.38-2.16,9.79-2.16S498.57,720.85,498.57,722.05Z"/><path class="cls-1" d="M498.57,722.05v7.43c0,1.18-4.38,2.14-9.8,2.14s-9.79-1-9.79-2.14v-7.43c0,1.17,4.38,2.14,9.79,2.14S498.57,723.22,498.57,722.05Z"/><rect class="cls-1" x="87.52" y="759.18" width="401.77" height="23.86"/><path class="cls-2" d="M489.29,759.18V783l20.46-20.49h0l20.47-20.47v-.27h.28L551,721.32V697.46Z"/><path class="cls-2" d="M149.24,697.46,128.75,718v.27h-.28L108,738.69,87.52,759.18H489.29L551,697.46ZM140.46,750c0,1.18-4.39,2.14-9.79,2.14s-9.81-1-9.81-2.14v-7.45c0-.26.18-.5.53-.71,1.31-.85,5-1.45,9.28-1.45s8,.6,9.26,1.45c.36.21.53.45.53.71Zm20.47-20.49c0,1.18-4.37,2.14-9.79,2.14s-9.79-1-9.79-2.14v-7.43c0-1.2,4.37-2.16,9.79-2.16s9.79,1,9.79,2.16Zm20.76-20.74c0,1.18-4.39,2.14-9.79,2.14s-9.81-1-9.81-2.14v-7.46c0-1.17,4.4-2.15,9.81-2.15s9.79,1,9.79,2.15ZM208,750c0,1.18-4.4,2.14-9.79,2.14s-9.81-1-9.81-2.14v-7.45c0-.26.19-.5.55-.71,1.33-.85,5-1.45,9.26-1.45s8,.6,9.26,1.45c.35.21.53.45.53.71Zm20.47-20.49c0,1.18-4.38,2.14-9.79,2.14s-9.8-1-9.8-2.14v-7.43c0-1.2,4.38-2.16,9.8-2.16s9.79,1,9.79,2.16Zm20.76-20.74c0,1.18-4.39,2.14-9.81,2.14s-9.79-1-9.79-2.14v-7.46c0-1.17,4.39-2.15,9.79-2.15s9.81,1,9.81,2.15ZM275.52,750c0,1.18-4.4,2.14-9.79,2.14s-9.82-1-9.82-2.14v-7.45c0-.26.18-.5.53-.71,1.32-.85,5-1.45,9.29-1.45s7.94.6,9.26,1.45c.35.21.53.45.53.71ZM296,729.48c0,1.18-4.38,2.14-9.8,2.14s-9.79-1-9.79-2.14v-7.43c0-1.2,4.38-2.16,9.79-2.16s9.8,1,9.8,2.16Zm20.76-20.74c0,1.18-4.4,2.14-9.81,2.14s-9.8-1-9.8-2.14v-7.46c0-1.17,4.4-2.15,9.8-2.15s9.81,1,9.81,2.15ZM343,750c0,1.18-4.39,2.14-9.81,2.14s-9.79-1-9.79-2.14v-7.45c0-.26.18-.5.53-.71,1.31-.85,5-1.45,9.26-1.45s8,.6,9.28,1.45c.36.21.53.45.53.71Zm20.47-20.49c0,1.18-4.37,2.14-9.79,2.14s-9.79-1-9.79-2.14v-7.43c0-1.2,4.37-2.16,9.79-2.16s9.79,1,9.79,2.16Zm20.77-20.74c0,1.18-4.4,2.14-9.82,2.14s-9.79-1-9.79-2.14v-7.46c0-1.17,4.4-2.15,9.79-2.15s9.82,1,9.82,2.15ZM410.57,750c0,1.18-4.39,2.14-9.81,2.14s-9.79-1-9.79-2.14v-7.45c0-.26.17-.5.53-.71,1.31-.85,5-1.45,9.26-1.45s7.93.6,9.26,1.45c.36.21.55.45.55.71ZM431,729.48c0,1.18-4.38,2.14-9.79,2.14s-9.79-1-9.79-2.14v-7.43c0-1.2,4.37-2.16,9.79-2.16s9.79,1,9.79,2.16Zm20.76-20.74c0,1.18-4.39,2.14-9.81,2.14s-9.79-1-9.79-2.14v-7.46c0-1.17,4.39-2.15,9.79-2.15s9.81,1,9.81,2.15ZM478.1,750c0,1.18-4.4,2.14-9.81,2.14s-9.8-1-9.8-2.14v-7.45c0-.26.18-.5.53-.71,1.32-.85,5-1.45,9.27-1.45s8,.6,9.28,1.45c.35.21.53.45.53.71Zm20.47-20.49c0,1.18-4.38,2.14-9.8,2.14s-9.79-1-9.79-2.14v-7.43c0-1.2,4.38-2.16,9.79-2.16s9.8,1,9.8,2.16Zm10.95-18.6c-5.4,0-9.79-1-9.79-2.14v-7.46c0-1.17,4.39-2.15,9.79-2.15s9.81,1,9.81,2.15v7.46C519.33,709.92,514.93,710.88,509.52,710.88Z"/><path class="cls-1" d="M140.46,742.52V750c0,1.18-4.39,2.14-9.79,2.14s-9.81-1-9.81-2.14v-7.45c0-.26.18-.5.53-.71,1.31-.85,5-1.45,9.28-1.45s8,.6,9.26,1.45C140.29,742,140.46,742.26,140.46,742.52Z"/><path class="cls-1" d="M208,742.52V750c0,1.18-4.4,2.14-9.79,2.14s-9.81-1-9.81-2.14v-7.45c0-.26.19-.5.55-.71,1.33-.85,5-1.45,9.26-1.45s8,.6,9.26,1.45C207.81,742,208,742.26,208,742.52Z"/><path class="cls-1" d="M275.52,742.52V750c0,1.18-4.4,2.14-9.79,2.14s-9.82-1-9.82-2.14v-7.45c0-.26.18-.5.53-.71,1.32-.85,5-1.45,9.29-1.45s7.94.6,9.26,1.45C275.34,742,275.52,742.26,275.52,742.52Z"/><path class="cls-1" d="M343,742.52V750c0,1.18-4.39,2.14-9.81,2.14s-9.79-1-9.79-2.14v-7.45c0-.26.18-.5.53-.71,1.31-.85,5-1.45,9.26-1.45s8,.6,9.28,1.45C342.87,742,343,742.26,343,742.52Z"/><path class="cls-1" d="M410.57,742.52V750c0,1.18-4.39,2.14-9.81,2.14s-9.79-1-9.79-2.14v-7.45c0-.26.17-.5.53-.71,1.31-.85,5-1.45,9.26-1.45s7.93.6,9.26,1.45C410.38,742,410.57,742.26,410.57,742.52Z"/><path class="cls-1" d="M478.1,742.52V750c0,1.18-4.4,2.14-9.81,2.14s-9.8-1-9.8-2.14v-7.45c0-.26.18-.5.53-.71,1.32-.85,5-1.45,9.27-1.45s8,.6,9.28,1.45C477.92,742,478.1,742.26,478.1,742.52Z"/><path class="cls-1" d="M140.46,742.52c0,1.17-4.39,2.13-9.79,2.13s-9.81-1-9.81-2.13c0-.26.18-.5.53-.71,1.31-.85,5-1.45,9.28-1.45s8,.6,9.26,1.45C140.29,742,140.46,742.26,140.46,742.52Z"/><path class="cls-1" d="M140.46,742.52V750c0,1.18-4.39,2.14-9.79,2.14s-9.81-1-9.81-2.14v-7.45c0,1.17,4.39,2.13,9.81,2.13S140.46,743.69,140.46,742.52Z"/><path class="cls-1" d="M140.46,745.52c0,1.18-4.39,2.14-9.79,2.14s-9.81-1-9.81-2.14c0-.26.18-.49.53-.71,1.31-.84,5-1.45,9.28-1.45s8,.61,9.26,1.45C140.29,745,140.46,745.26,140.46,745.52Z"/><path class="cls-3" d="M140.46,745.52V750c0,1.17-4.39,2.13-9.79,2.13s-9.81-1-9.81-2.13v-4.46c0,1.18,4.39,2.14,9.81,2.14S140.46,746.7,140.46,745.52Z"/><path class="cls-3" d="M144.53,739.48c0,1.67-6.22,3-13.86,3s-13.88-1.36-13.88-3c0-.36.25-.69.75-1,1.86-1.19,7-2.05,13.13-2.05s11.25.86,13.11,2.05C144.28,738.79,144.53,739.12,144.53,739.48Z"/><path class="cls-4" d="M144.53,739.48v6.31c0,1.67-6.22,3-13.86,3s-13.88-1.36-13.88-3v-6.31c0,1.67,6.22,3,13.88,3S144.53,741.15,144.53,739.48Z"/><path class="cls-3" d="M140.46,734.21c0,1.18-4.39,2.14-9.79,2.14s-9.81-1-9.81-2.14c0-.26.18-.49.53-.71,1.31-.84,5-1.45,9.28-1.45s8,.61,9.26,1.45C140.29,733.72,140.46,734,140.46,734.21Z"/><path class="cls-4" d="M140.46,734.21v4.46c0,1.17-4.39,2.14-9.79,2.14s-9.81-1-9.81-2.14v-4.46c0,1.18,4.39,2.14,9.81,2.14S140.46,735.39,140.46,734.21Z"/><path class="cls-1" d="M160.94,725c0,1.17-4.39,2.14-9.79,2.14s-9.81-1-9.81-2.14c0-.26.17-.49.53-.71,1.31-.84,5-1.45,9.28-1.45s7.95.61,9.26,1.45C160.76,724.54,160.94,724.77,160.94,725Z"/><path class="cls-3" d="M160.94,725v4.45c0,1.18-4.39,2.14-9.79,2.14s-9.81-1-9.81-2.14V725c0,1.17,4.39,2.14,9.81,2.14S160.94,726.2,160.94,725Z"/><path class="cls-3" d="M165,719c0,1.67-6.22,3-13.86,3s-13.88-1.36-13.88-3c0-.36.25-.69.75-1,1.86-1.19,7-2,13.13-2s11.25.86,13.11,2C164.76,718.3,165,718.63,165,719Z"/><path class="cls-4" d="M165,719v6.31c0,1.66-6.22,3-13.86,3s-13.88-1.37-13.88-3V719c0,1.67,6.22,3,13.88,3S165,720.66,165,719Z"/><path class="cls-3" d="M160.94,713.72c0,1.18-4.39,2.14-9.79,2.14s-9.81-1-9.81-2.14c0-.26.17-.49.53-.71,1.31-.84,5-1.45,9.28-1.45s7.95.61,9.26,1.45C160.76,713.23,160.94,713.46,160.94,713.72Z"/><path class="cls-4" d="M160.94,713.72v4.46c0,1.17-4.39,2.13-9.79,2.13s-9.81-1-9.81-2.13v-4.46c0,1.18,4.39,2.14,9.81,2.14S160.94,714.9,160.94,713.72Z"/><path class="cls-5" d="M181.69,704.42c0,1.17-4.39,2.14-9.79,2.14s-9.81-1-9.81-2.14c0-.26.18-.49.53-.71,1.31-.84,5-1.45,9.28-1.45s7.95.61,9.26,1.45C181.52,703.93,181.69,704.16,181.69,704.42Z"/><path class="cls-6" d="M181.69,704.42v4.45c0,1.18-4.39,2.14-9.79,2.14s-9.81-1-9.81-2.14v-4.45c0,1.17,4.4,2.14,9.81,2.14S181.69,705.59,181.69,704.42Z"/><path class="cls-6" d="M185.76,698.38c0,1.67-6.22,3-13.85,3s-13.89-1.36-13.89-3c0-.36.25-.69.75-1,1.86-1.19,7-2,13.14-2s11.24.86,13.1,2C185.51,697.69,185.76,698,185.76,698.38Z"/><path class="cls-5" d="M185.76,698.38v6.31c0,1.66-6.22,3-13.85,3s-13.89-1.37-13.89-3v-6.31c0,1.67,6.22,3,13.89,3S185.76,700.05,185.76,698.38Z"/><path class="cls-6" d="M181.69,693.11c0,1.17-4.39,2.14-9.79,2.14s-9.81-1-9.81-2.14c0-.26.18-.49.53-.71,1.31-.84,5-1.45,9.28-1.45s7.95.61,9.26,1.45C181.52,692.62,181.69,692.85,181.69,693.11Z"/><path class="cls-5" d="M181.69,693.11v4.45c0,1.18-4.39,2.14-9.79,2.14s-9.81-1-9.81-2.14v-4.45c0,1.17,4.4,2.14,9.81,2.14S181.69,694.28,181.69,693.11Z"/><path class="cls-1" d="M208,742.52c0,1.17-4.4,2.13-9.79,2.13s-9.81-1-9.81-2.13c0-.26.19-.5.55-.71,1.33-.85,5-1.45,9.26-1.45s8,.6,9.26,1.45C207.81,742,208,742.26,208,742.52Z"/><path class="cls-1" d="M208,742.52V750c0,1.18-4.4,2.14-9.79,2.14s-9.81-1-9.81-2.14v-7.45c0,1.17,4.39,2.13,9.81,2.13S208,743.69,208,742.52Z"/><path class="cls-1" d="M275.52,742.52c0,1.17-4.4,2.13-9.79,2.13s-9.82-1-9.82-2.13c0-.26.18-.5.53-.71,1.32-.85,5-1.45,9.29-1.45s7.94.6,9.26,1.45C275.34,742,275.52,742.26,275.52,742.52Z"/><path class="cls-1" d="M275.52,742.52V750c0,1.18-4.4,2.14-9.79,2.14s-9.82-1-9.82-2.14v-7.45c0,1.17,4.4,2.13,9.82,2.13S275.52,743.69,275.52,742.52Z"/><path class="cls-1" d="M343,742.52c0,1.17-4.39,2.13-9.81,2.13s-9.79-1-9.79-2.13c0-.26.18-.5.53-.71,1.31-.85,5-1.45,9.26-1.45s8,.6,9.28,1.45C342.87,742,343,742.26,343,742.52Z"/><path class="cls-1" d="M343,742.52V750c0,1.18-4.39,2.14-9.81,2.14s-9.79-1-9.79-2.14v-7.45c0,1.17,4.4,2.13,9.79,2.13S343,743.69,343,742.52Z"/><path class="cls-1" d="M410.57,742.52c0,1.17-4.39,2.13-9.81,2.13s-9.79-1-9.79-2.13c0-.26.17-.5.53-.71,1.31-.85,5-1.45,9.26-1.45s7.93.6,9.26,1.45C410.38,742,410.57,742.26,410.57,742.52Z"/><path class="cls-1" d="M410.57,742.52V750c0,1.18-4.39,2.14-9.81,2.14s-9.79-1-9.79-2.14v-7.45c0,1.17,4.39,2.13,9.79,2.13S410.57,743.69,410.57,742.52Z"/><path class="cls-1" d="M478.1,742.52c0,1.17-4.4,2.13-9.81,2.13s-9.8-1-9.8-2.13c0-.26.18-.5.53-.71,1.32-.85,5-1.45,9.27-1.45s8,.6,9.28,1.45C477.92,742,478.1,742.26,478.1,742.52Z"/><path class="cls-1" d="M478.1,742.52V750c0,1.18-4.4,2.14-9.81,2.14s-9.8-1-9.8-2.14v-7.45c0,1.17,4.4,2.13,9.8,2.13S478.1,743.69,478.1,742.52Z"/><path class="cls-1" d="M207.85,745.52c0,1.18-4.39,2.14-9.79,2.14s-9.81-1-9.81-2.14c0-.26.17-.49.53-.71,1.31-.84,5-1.45,9.28-1.45s7.95.61,9.26,1.45C207.68,745,207.85,745.26,207.85,745.52Z"/><path class="cls-3" d="M207.85,745.52V750c0,1.17-4.39,2.13-9.79,2.13s-9.81-1-9.81-2.13v-4.46c0,1.18,4.39,2.14,9.81,2.14S207.85,746.7,207.85,745.52Z"/><path class="cls-3" d="M211.92,739.48c0,1.67-6.22,3-13.86,3s-13.88-1.36-13.88-3c0-.36.25-.69.75-1,1.86-1.19,7-2.05,13.13-2.05s11.25.86,13.11,2.05C211.67,738.79,211.92,739.12,211.92,739.48Z"/><path class="cls-4" d="M211.92,739.48v6.31c0,1.67-6.22,3-13.86,3s-13.88-1.36-13.88-3v-6.31c0,1.67,6.22,3,13.88,3S211.92,741.15,211.92,739.48Z"/><path class="cls-3" d="M207.85,734.21c0,1.18-4.39,2.14-9.79,2.14s-9.81-1-9.81-2.14c0-.26.17-.49.53-.71,1.31-.84,5-1.45,9.28-1.45s7.95.61,9.26,1.45C207.68,733.72,207.85,734,207.85,734.21Z"/><path class="cls-4" d="M207.85,734.21v4.46c0,1.17-4.39,2.14-9.79,2.14s-9.81-1-9.81-2.14v-4.46c0,1.18,4.39,2.14,9.81,2.14S207.85,735.39,207.85,734.21Z"/><path class="cls-1" d="M228.33,725c0,1.17-4.39,2.14-9.79,2.14s-9.81-1-9.81-2.14c0-.26.17-.49.53-.71,1.31-.84,5-1.45,9.28-1.45s8,.61,9.26,1.45C228.15,724.54,228.33,724.77,228.33,725Z"/><path class="cls-3" d="M228.33,725v4.45c0,1.18-4.39,2.14-9.79,2.14s-9.81-1-9.81-2.14V725c0,1.17,4.39,2.14,9.81,2.14S228.33,726.2,228.33,725Z"/><path class="cls-3" d="M232.4,719c0,1.67-6.22,3-13.86,3s-13.88-1.36-13.88-3c0-.36.25-.69.75-1,1.86-1.19,7.05-2,13.13-2s11.25.86,13.11,2C232.15,718.3,232.4,718.63,232.4,719Z"/><path class="cls-4" d="M232.4,719v6.31c0,1.66-6.22,3-13.86,3s-13.88-1.37-13.88-3V719c0,1.67,6.22,3,13.88,3S232.4,720.66,232.4,719Z"/><path class="cls-3" d="M228.33,713.72c0,1.18-4.39,2.14-9.79,2.14s-9.81-1-9.81-2.14c0-.26.17-.49.53-.71,1.31-.84,5-1.45,9.28-1.45s8,.61,9.26,1.45C228.15,713.23,228.33,713.46,228.33,713.72Z"/><path class="cls-4" d="M228.33,713.72v4.46c0,1.17-4.39,2.13-9.79,2.13s-9.81-1-9.81-2.13v-4.46c0,1.18,4.39,2.14,9.81,2.14S228.33,714.9,228.33,713.72Z"/><path class="cls-1" d="M249.08,704.42c0,1.17-4.39,2.14-9.79,2.14s-9.81-1-9.81-2.14c0-.26.18-.49.53-.71,1.31-.84,5-1.45,9.28-1.45s8,.61,9.26,1.45C248.91,703.93,249.08,704.16,249.08,704.42Z"/><path class="cls-3" d="M249.08,704.42v4.45c0,1.18-4.39,2.14-9.79,2.14s-9.81-1-9.81-2.14v-4.45c0,1.17,4.39,2.14,9.81,2.14S249.08,705.59,249.08,704.42Z"/><path class="cls-3" d="M253.15,698.38c0,1.67-6.22,3-13.85,3s-13.89-1.36-13.89-3c0-.36.25-.69.75-1,1.86-1.19,7.05-2,13.14-2s11.24.86,13.1,2C252.9,697.69,253.15,698,253.15,698.38Z"/><path class="cls-4" d="M253.15,698.38v6.31c0,1.66-6.22,3-13.85,3s-13.89-1.37-13.89-3v-6.31c0,1.67,6.22,3,13.89,3S253.15,700.05,253.15,698.38Z"/><path class="cls-3" d="M249.08,693.11c0,1.17-4.39,2.14-9.79,2.14s-9.81-1-9.81-2.14c0-.26.18-.49.53-.71,1.31-.84,5-1.45,9.28-1.45s8,.61,9.26,1.45C248.91,692.62,249.08,692.85,249.08,693.11Z"/><path class="cls-4" d="M249.08,693.11v4.45c0,1.18-4.39,2.14-9.79,2.14s-9.81-1-9.81-2.14v-4.45c0,1.17,4.39,2.14,9.81,2.14S249.08,694.28,249.08,693.11Z"/><path class="cls-1" d="M295.86,725c0,1.17-4.4,2.14-9.79,2.14s-9.82-1-9.82-2.14c0-.26.18-.49.53-.71,1.32-.84,5-1.45,9.29-1.45s7.94.61,9.26,1.45C295.68,724.54,295.86,724.77,295.86,725Z"/><path class="cls-3" d="M295.86,725v4.45c0,1.18-4.4,2.14-9.79,2.14s-9.82-1-9.82-2.14V725c0,1.17,4.4,2.14,9.82,2.14S295.86,726.2,295.86,725Z"/><path class="cls-3" d="M299.93,719c0,1.67-6.22,3-13.86,3s-13.88-1.36-13.88-3c0-.36.24-.69.74-1,1.87-1.19,7.06-2,13.14-2s11.25.86,13.11,2C299.68,718.3,299.93,718.63,299.93,719Z"/><path class="cls-4" d="M299.93,719v6.31c0,1.66-6.22,3-13.86,3s-13.88-1.37-13.88-3V719c0,1.67,6.22,3,13.88,3S299.93,720.66,299.93,719Z"/><path class="cls-3" d="M295.86,713.72c0,1.18-4.4,2.14-9.79,2.14s-9.82-1-9.82-2.14c0-.26.18-.49.53-.71,1.32-.84,5-1.45,9.29-1.45s7.94.61,9.26,1.45C295.68,713.23,295.86,713.46,295.86,713.72Z"/><path class="cls-4" d="M295.86,713.72v4.46c0,1.17-4.4,2.13-9.79,2.13s-9.82-1-9.82-2.13v-4.46c0,1.18,4.4,2.14,9.82,2.14S295.86,714.9,295.86,713.72Z"/><path class="cls-1" d="M316.61,704.42c0,1.17-4.39,2.14-9.79,2.14s-9.81-1-9.81-2.14c0-.26.17-.49.53-.71,1.31-.84,5-1.45,9.28-1.45s7.95.61,9.26,1.45C316.43,703.93,316.61,704.16,316.61,704.42Z"/><path class="cls-3" d="M316.61,704.42v4.45c0,1.18-4.39,2.14-9.79,2.14s-9.81-1-9.81-2.14v-4.45c0,1.17,4.39,2.14,9.81,2.14S316.61,705.59,316.61,704.42Z"/><path class="cls-3" d="M320.68,698.38c0,1.67-6.22,3-13.86,3s-13.88-1.36-13.88-3c0-.36.25-.69.75-1,1.86-1.19,7.05-2,13.13-2s11.25.86,13.11,2C320.43,697.69,320.68,698,320.68,698.38Z"/><path class="cls-4" d="M320.68,698.38v6.31c0,1.66-6.22,3-13.86,3s-13.88-1.37-13.88-3v-6.31c0,1.67,6.22,3,13.88,3S320.68,700.05,320.68,698.38Z"/><path class="cls-3" d="M316.61,693.11c0,1.17-4.39,2.14-9.79,2.14s-9.81-1-9.81-2.14c0-.26.17-.49.53-.71,1.31-.84,5-1.45,9.28-1.45s7.95.61,9.26,1.45C316.43,692.62,316.61,692.85,316.61,693.11Z"/><path class="cls-4" d="M316.61,693.11v4.45c0,1.18-4.39,2.14-9.79,2.14s-9.81-1-9.81-2.14v-4.45c0,1.17,4.39,2.14,9.81,2.14S316.61,694.28,316.61,693.11Z"/><path class="cls-1" d="M363.39,725c0,1.17-4.4,2.14-9.8,2.14s-9.81-1-9.81-2.14c0-.26.18-.49.53-.71,1.32-.84,5-1.45,9.28-1.45s8,.61,9.27,1.45C363.21,724.54,363.39,724.77,363.39,725Z"/><path class="cls-3" d="M363.39,725v4.45c0,1.18-4.4,2.14-9.8,2.14s-9.81-1-9.81-2.14V725c0,1.17,4.4,2.14,9.81,2.14S363.39,726.2,363.39,725Z"/><path class="cls-3" d="M367.45,719c0,1.67-6.22,3-13.85,3s-13.89-1.36-13.89-3c0-.36.25-.69.75-1,1.86-1.19,7.06-2,13.14-2s11.24.86,13.1,2C367.2,718.3,367.45,718.63,367.45,719Z"/><path class="cls-4" d="M367.45,719v6.31c0,1.66-6.22,3-13.85,3s-13.89-1.37-13.89-3V719c0,1.67,6.22,3,13.89,3S367.45,720.66,367.45,719Z"/><path class="cls-3" d="M363.39,713.72c0,1.18-4.4,2.14-9.8,2.14s-9.81-1-9.81-2.14c0-.26.18-.49.53-.71,1.32-.84,5-1.45,9.28-1.45s8,.61,9.27,1.45C363.21,713.23,363.39,713.46,363.39,713.72Z"/><path class="cls-4" d="M363.39,713.72v4.46c0,1.17-4.4,2.13-9.8,2.13s-9.81-1-9.81-2.13v-4.46c0,1.18,4.4,2.14,9.81,2.14S363.39,714.9,363.39,713.72Z"/><path class="cls-1" d="M384.14,704.42c0,1.17-4.4,2.14-9.79,2.14s-9.82-1-9.82-2.14c0-.26.18-.49.53-.71,1.32-.84,5-1.45,9.29-1.45s7.94.61,9.26,1.45C384,703.93,384.14,704.16,384.14,704.42Z"/><path class="cls-3" d="M384.14,704.42v4.45c0,1.18-4.4,2.14-9.79,2.14s-9.82-1-9.82-2.14v-4.45c0,1.17,4.4,2.14,9.82,2.14S384.14,705.59,384.14,704.42Z"/><path class="cls-3" d="M388.21,698.38c0,1.67-6.22,3-13.86,3s-13.89-1.36-13.89-3c0-.36.25-.69.75-1,1.87-1.19,7.06-2,13.14-2s11.25.86,13.11,2C388,697.69,388.21,698,388.21,698.38Z"/><path class="cls-4" d="M388.21,698.38v6.31c0,1.66-6.22,3-13.86,3s-13.89-1.37-13.89-3v-6.31c0,1.67,6.23,3,13.89,3S388.21,700.05,388.21,698.38Z"/><path class="cls-3" d="M384.14,693.11c0,1.17-4.4,2.14-9.79,2.14s-9.82-1-9.82-2.14c0-.26.18-.49.53-.71,1.32-.84,5-1.45,9.29-1.45s7.94.61,9.26,1.45C384,692.62,384.14,692.85,384.14,693.11Z"/><path class="cls-4" d="M384.14,693.11v4.45c0,1.18-4.4,2.14-9.79,2.14s-9.82-1-9.82-2.14v-4.45c0,1.17,4.4,2.14,9.82,2.14S384.14,694.28,384.14,693.11Z"/><path class="cls-1" d="M410.43,745.52c0,1.18-4.39,2.14-9.79,2.14s-9.81-1-9.81-2.14c0-.26.18-.49.53-.71,1.31-.84,5-1.45,9.28-1.45s7.95.61,9.26,1.45C410.26,745,410.43,745.26,410.43,745.52Z"/><path class="cls-3" d="M410.43,745.52V750c0,1.17-4.39,2.13-9.79,2.13s-9.81-1-9.81-2.13v-4.46c0,1.18,4.4,2.14,9.81,2.14S410.43,746.7,410.43,745.52Z"/><path class="cls-3" d="M414.5,739.48c0,1.67-6.22,3-13.85,3s-13.89-1.36-13.89-3c0-.36.25-.69.75-1,1.86-1.19,7.05-2.05,13.14-2.05s11.24.86,13.1,2.05C414.25,738.79,414.5,739.12,414.5,739.48Z"/><path class="cls-4" d="M414.5,739.48v6.31c0,1.67-6.22,3-13.85,3s-13.89-1.36-13.89-3v-6.31c0,1.67,6.22,3,13.89,3S414.5,741.15,414.5,739.48Z"/><path class="cls-3" d="M410.43,734.21c0,1.18-4.39,2.14-9.79,2.14s-9.81-1-9.81-2.14c0-.26.18-.49.53-.71,1.31-.84,5-1.45,9.28-1.45s7.95.61,9.26,1.45C410.26,733.72,410.43,734,410.43,734.21Z"/><path class="cls-4" d="M410.43,734.21v4.46c0,1.17-4.39,2.14-9.79,2.14s-9.81-1-9.81-2.14v-4.46c0,1.18,4.4,2.14,9.81,2.14S410.43,735.39,410.43,734.21Z"/><path class="cls-1" d="M430.91,725c0,1.17-4.39,2.14-9.79,2.14s-9.81-1-9.81-2.14c0-.26.17-.49.53-.71,1.31-.84,5-1.45,9.28-1.45s7.95.61,9.26,1.45C430.74,724.54,430.91,724.77,430.91,725Z"/><path class="cls-3" d="M430.91,725v4.45c0,1.18-4.39,2.14-9.79,2.14s-9.81-1-9.81-2.14V725c0,1.17,4.39,2.14,9.81,2.14S430.91,726.2,430.91,725Z"/><path class="cls-3" d="M435,719c0,1.67-6.22,3-13.86,3s-13.88-1.36-13.88-3c0-.36.25-.69.75-1,1.86-1.19,7.05-2,13.13-2s11.25.86,13.11,2C434.73,718.3,435,718.63,435,719Z"/><path class="cls-4" d="M435,719v6.31c0,1.66-6.22,3-13.86,3s-13.88-1.37-13.88-3V719c0,1.67,6.22,3,13.88,3S435,720.66,435,719Z"/><path class="cls-3" d="M430.91,713.72c0,1.18-4.39,2.14-9.79,2.14s-9.81-1-9.81-2.14c0-.26.17-.49.53-.71,1.31-.84,5-1.45,9.28-1.45s7.95.61,9.26,1.45C430.74,713.23,430.91,713.46,430.91,713.72Z"/><path class="cls-4" d="M430.91,713.72v4.46c0,1.17-4.39,2.13-9.79,2.13s-9.81-1-9.81-2.13v-4.46c0,1.18,4.39,2.14,9.81,2.14S430.91,714.9,430.91,713.72Z"/><path class="cls-1" d="M451.67,704.42c0,1.17-4.4,2.14-9.8,2.14s-9.81-1-9.81-2.14c0-.26.18-.49.53-.71,1.32-.84,5-1.45,9.28-1.45s7.95.61,9.27,1.45C451.49,703.93,451.67,704.16,451.67,704.42Z"/><path class="cls-3" d="M451.67,704.42v4.45c0,1.18-4.4,2.14-9.8,2.14s-9.81-1-9.81-2.14v-4.45c0,1.17,4.4,2.14,9.81,2.14S451.67,705.59,451.67,704.42Z"/><path class="cls-3" d="M455.73,698.38c0,1.67-6.22,3-13.85,3s-13.89-1.36-13.89-3c0-.36.25-.69.75-1,1.86-1.19,7.06-2,13.14-2s11.24.86,13.1,2C455.48,697.69,455.73,698,455.73,698.38Z"/><path class="cls-4" d="M455.73,698.38v6.31c0,1.66-6.22,3-13.85,3s-13.89-1.37-13.89-3v-6.31c0,1.67,6.22,3,13.89,3S455.73,700.05,455.73,698.38Z"/><path class="cls-3" d="M451.67,693.11c0,1.17-4.4,2.14-9.8,2.14s-9.81-1-9.81-2.14c0-.26.18-.49.53-.71,1.32-.84,5-1.45,9.28-1.45s7.95.61,9.27,1.45C451.49,692.62,451.67,692.85,451.67,693.11Z"/><path class="cls-4" d="M451.67,693.11v4.45c0,1.18-4.4,2.14-9.8,2.14s-9.81-1-9.81-2.14v-4.45c0,1.17,4.4,2.14,9.81,2.14S451.67,694.28,451.67,693.11Z"/><path class="cls-1" d="M478,745.52c0,1.18-4.39,2.14-9.79,2.14s-9.81-1-9.81-2.14c0-.26.17-.49.53-.71,1.31-.84,5-1.45,9.28-1.45s7.95.61,9.26,1.45C477.79,745,478,745.26,478,745.52Z"/><path class="cls-3" d="M478,745.52V750c0,1.17-4.39,2.13-9.79,2.13s-9.81-1-9.81-2.13v-4.46c0,1.18,4.39,2.14,9.81,2.14S478,746.7,478,745.52Z"/><path class="cls-3" d="M482,739.48c0,1.67-6.22,3-13.86,3s-13.88-1.36-13.88-3c0-.36.25-.69.75-1,1.86-1.19,7-2.05,13.13-2.05s11.25.86,13.11,2.05C481.78,738.79,482,739.12,482,739.48Z"/><path class="cls-4" d="M482,739.48v6.31c0,1.67-6.22,3-13.86,3s-13.88-1.36-13.88-3v-6.31c0,1.67,6.22,3,13.88,3S482,741.15,482,739.48Z"/><path class="cls-3" d="M478,734.21c0,1.18-4.39,2.14-9.79,2.14s-9.81-1-9.81-2.14c0-.26.17-.49.53-.71,1.31-.84,5-1.45,9.28-1.45s7.95.61,9.26,1.45C477.79,733.72,478,734,478,734.21Z"/><path class="cls-4" d="M478,734.21v4.46c0,1.17-4.39,2.14-9.79,2.14s-9.81-1-9.81-2.14v-4.46c0,1.18,4.39,2.14,9.81,2.14S478,735.39,478,734.21Z"/><path class="cls-1" d="M498.44,725c0,1.17-4.4,2.14-9.79,2.14s-9.81-1-9.81-2.14c0-.26.17-.49.52-.71,1.32-.84,5-1.45,9.29-1.45s8,.61,9.26,1.45C498.26,724.54,498.44,724.77,498.44,725Z"/><path class="cls-3" d="M498.44,725v4.45c0,1.18-4.4,2.14-9.79,2.14s-9.81-1-9.81-2.14V725c0,1.17,4.39,2.14,9.81,2.14S498.44,726.2,498.44,725Z"/><path class="cls-3" d="M502.51,719c0,1.67-6.22,3-13.86,3s-13.88-1.36-13.88-3c0-.36.25-.69.75-1,1.86-1.19,7.05-2,13.13-2s11.25.86,13.11,2C502.26,718.3,502.51,718.63,502.51,719Z"/><path class="cls-4" d="M502.51,719v6.31c0,1.66-6.22,3-13.86,3s-13.88-1.37-13.88-3V719c0,1.67,6.22,3,13.88,3S502.51,720.66,502.51,719Z"/><path class="cls-3" d="M498.44,713.72c0,1.18-4.4,2.14-9.79,2.14s-9.81-1-9.81-2.14c0-.26.17-.49.52-.71,1.32-.84,5-1.45,9.29-1.45s8,.61,9.26,1.45C498.26,713.23,498.44,713.46,498.44,713.72Z"/><path class="cls-4" d="M498.44,713.72v4.46c0,1.17-4.4,2.13-9.79,2.13s-9.81-1-9.81-2.13v-4.46c0,1.18,4.39,2.14,9.81,2.14S498.44,714.9,498.44,713.72Z"/><path class="cls-1" d="M519.19,704.42c0,1.17-4.39,2.14-9.79,2.14s-9.81-1-9.81-2.14c0-.26.17-.49.53-.71,1.31-.84,5-1.45,9.28-1.45s8,.61,9.26,1.45C519,703.93,519.19,704.16,519.19,704.42Z"/><path class="cls-3" d="M519.19,704.42v4.45c0,1.18-4.39,2.14-9.79,2.14s-9.81-1-9.81-2.14v-4.45c0,1.17,4.39,2.14,9.81,2.14S519.19,705.59,519.19,704.42Z"/><path class="cls-3" d="M523.26,698.38c0,1.67-6.22,3-13.86,3s-13.88-1.36-13.88-3c0-.36.25-.69.75-1,1.86-1.19,7.05-2,13.13-2s11.25.86,13.11,2C523,697.69,523.26,698,523.26,698.38Z"/><path class="cls-4" d="M523.26,698.38v6.31c0,1.66-6.22,3-13.86,3s-13.88-1.37-13.88-3v-6.31c0,1.67,6.22,3,13.88,3S523.26,700.05,523.26,698.38Z"/><path class="cls-3" d="M519.19,693.11c0,1.17-4.39,2.14-9.79,2.14s-9.81-1-9.81-2.14c0-.26.17-.49.53-.71,1.31-.84,5-1.45,9.28-1.45s8,.61,9.26,1.45C519,692.62,519.19,692.85,519.19,693.11Z"/><path class="cls-4" d="M519.19,693.11v4.45c0,1.18-4.39,2.14-9.79,2.14s-9.81-1-9.81-2.14v-4.45c0,1.17,4.39,2.14,9.81,2.14S519.19,694.28,519.19,693.11Z"/><rect class="cls-5" x="222.78" y="746.23" width="142.98" height="11.32"/><path class="cls-6" d="M365.76,746.23v11.32l3.75-3.75,3.81-3.81,3.75-3.76V734.91Z"/><polygon class="cls-6" points="377.07 734.91 365.76 746.23 222.78 746.23 226.54 742.48 230.29 738.72 230.34 738.72 230.34 738.67 234.1 734.91 377.07 734.91"/><rect class="cls-5" x="619.05" y="768.68" width="40.28" height="5.5"/><path class="cls-5" d="M659.33,768.68v5.5l1.82-1.83,1.85-1.84,20.07-20.08v-5.49Z"/><polygon class="cls-5" points="683.07 744.94 659.33 768.68 619.05 768.68 620.87 766.86 640.94 746.78 640.97 746.78 640.97 746.76 642.79 744.94 683.07 744.94"/><rect class="cls-5" x="659.33" y="768.68" width="40.28" height="5.5"/><path class="cls-5" d="M699.61,768.68v5.5l1.82-1.83,1.85-1.84,20.07-20.08v-5.49Z"/><polygon class="cls-5" points="723.35 744.94 699.61 768.68 659.33 768.68 661.15 766.86 681.22 746.78 681.25 746.78 681.25 746.76 683.07 744.94 723.35 744.94"/><rect class="cls-4" x="574.17" y="813.45" width="80.57" height="5.5"/><path class="cls-3" d="M654.74,813.45v5.49l1.82-1.82,1.85-1.85,40.89-40.89v-5.49Z"/><rect class="cls-4" x="574.17" y="819.53" width="80.57" height="20.65"/><path class="cls-3" d="M654.74,819.53v20.64l3.67-3.67,65.07-65.07V750.78Z"/><polygon class="cls-3" points="699.3 768.89 654.74 813.45 574.17 813.45 575.99 811.62 616.88 770.74 616.91 770.74 616.91 770.71 618.73 768.89 699.3 768.89"/><path class="cls-2" d="M389.63,487v7.46c0,1.18-4.38,2.14-9.79,2.14s-9.8-1-9.8-2.14V487c0-1.18,4.4-2.14,9.8-2.14S389.63,485.8,389.63,487Z"/><path class="cls-2" d="M389.63,487c0,1.18-4.38,2.14-9.79,2.14s-9.8-1-9.8-2.14,4.4-2.14,9.8-2.14S389.63,485.8,389.63,487Z"/><path class="cls-2" d="M389.63,487v7.46c0,1.18-4.38,2.14-9.79,2.14s-9.8-1-9.8-2.14V487c0,1.18,4.4,2.14,9.8,2.14S389.63,488.16,389.63,487Z"/><polygon class="cls-2" points="473.74 483.15 473.74 612.26 453.27 632.75 453.27 503.64 473.74 483.15"/><path class="cls-1" d="M417.36,483.15l-.24.24v-.24H360.76l-20.49,20.49V632.75h56.38l.24-.24v.24h56.38V503.64l20.47-20.49Zm9.3,3.83c0-1.18,4.38-2.14,9.79-2.14s9.79,1,9.79,2.14v7.46c0,1.18-4.37,2.14-9.79,2.14s-9.79-1-9.79-2.14ZM370,487c0-1.18,4.4-2.14,9.8-2.14s9.79,1,9.79,2.14v7.46c0,1.18-4.38,2.14-9.79,2.14s-9.8-1-9.8-2.14Z"/><path class="cls-2" d="M446.24,487v7.46c0,1.18-4.37,2.14-9.79,2.14s-9.79-1-9.79-2.14V487c0-1.18,4.38-2.14,9.79-2.14S446.24,485.8,446.24,487Z"/><path class="cls-2" d="M446.24,487c0,1.18-4.37,2.14-9.79,2.14s-9.79-1-9.79-2.14,4.38-2.14,9.79-2.14S446.24,485.8,446.24,487Z"/><path class="cls-2" d="M446.24,487v7.46c0,1.18-4.37,2.14-9.79,2.14s-9.79-1-9.79-2.14V487c0,1.18,4.38,2.14,9.79,2.14S446.24,488.16,446.24,487Z"/><line class="cls-2" x1="340.27" y1="503.64" x2="453.27" y2="503.64"/><rect class="cls-1" x="26.09" y="481.46" width="721.64" height="23.87"/><polygon class="cls-2" points="768.21 460.98 768.21 484.85 747.73 505.33 747.73 481.46 768.21 460.98"/><polygon class="cls-1" points="768.21 460.98 747.73 481.46 26.09 481.46 46.57 460.98 768.21 460.98"/><path class="cls-1" d="M75.45,464.81c0,1.18-4.38,2.14-9.79,2.14s-9.8-1-9.8-2.14,4.39-2.15,9.8-2.15S75.45,463.62,75.45,464.81Z"/><path class="cls-1" d="M75.45,464.81v7.44c0,1.18-4.38,2.15-9.79,2.15s-9.8-1-9.8-2.15v-7.44c0,1.18,4.39,2.14,9.8,2.14S75.45,466,75.45,464.81Z"/><path class="cls-1" d="M143,464.81c0,1.18-4.38,2.14-9.79,2.14s-9.8-1-9.8-2.14,4.39-2.15,9.8-2.15S143,463.62,143,464.81Z"/><path class="cls-1" d="M143,464.81v7.44c0,1.18-4.38,2.15-9.79,2.15s-9.8-1-9.8-2.15v-7.44c0,1.18,4.39,2.14,9.8,2.14S143,466,143,464.81Z"/><path class="cls-1" d="M210.51,464.81c0,1.18-4.39,2.14-9.8,2.14s-9.79-1-9.79-2.14,4.38-2.15,9.79-2.15S210.51,463.62,210.51,464.81Z"/><path class="cls-1" d="M210.51,464.81v7.44c0,1.18-4.39,2.15-9.8,2.15s-9.79-1-9.79-2.15v-7.44c0,1.18,4.38,2.14,9.79,2.14S210.51,466,210.51,464.81Z"/><path class="cls-1" d="M278,464.81c0,1.18-4.38,2.14-9.79,2.14s-9.79-1-9.79-2.14,4.38-2.15,9.79-2.15S278,463.62,278,464.81Z"/><path class="cls-1" d="M278,464.81v7.44c0,1.18-4.38,2.15-9.79,2.15s-9.79-1-9.79-2.15v-7.44c0,1.18,4.38,2.14,9.79,2.14S278,466,278,464.81Z"/><path class="cls-1" d="M345.56,464.81c0,1.18-4.38,2.14-9.79,2.14s-9.8-1-9.8-2.14,4.39-2.15,9.8-2.15S345.56,463.62,345.56,464.81Z"/><path class="cls-1" d="M345.56,464.81v7.44c0,1.18-4.38,2.15-9.79,2.15s-9.8-1-9.8-2.15v-7.44c0,1.18,4.39,2.14,9.8,2.14S345.56,466,345.56,464.81Z"/><path class="cls-1" d="M413.09,464.81c0,1.18-4.39,2.14-9.8,2.14s-9.79-1-9.79-2.14,4.38-2.15,9.79-2.15S413.09,463.62,413.09,464.81Z"/><path class="cls-1" d="M413.09,464.81v7.44c0,1.18-4.39,2.15-9.8,2.15s-9.79-1-9.79-2.15v-7.44c0,1.18,4.38,2.14,9.79,2.14S413.09,466,413.09,464.81Z"/><path class="cls-1" d="M480.62,464.81c0,1.18-4.39,2.14-9.8,2.14s-9.79-1-9.79-2.14,4.38-2.15,9.79-2.15S480.62,463.62,480.62,464.81Z"/><path class="cls-1" d="M480.62,464.81v7.44c0,1.18-4.39,2.15-9.8,2.15s-9.79-1-9.79-2.15v-7.44c0,1.18,4.38,2.14,9.79,2.14S480.62,466,480.62,464.81Z"/><path class="cls-1" d="M548.14,464.81c0,1.18-4.38,2.14-9.79,2.14s-9.8-1-9.8-2.14,4.39-2.15,9.8-2.15S548.14,463.62,548.14,464.81Z"/><path class="cls-1" d="M548.14,464.81v7.44c0,1.18-4.38,2.15-9.79,2.15s-9.8-1-9.8-2.15v-7.44c0,1.18,4.39,2.14,9.8,2.14S548.14,466,548.14,464.81Z"/><path class="cls-1" d="M615.67,464.81c0,1.18-4.39,2.14-9.79,2.14s-9.8-1-9.8-2.14,4.39-2.15,9.8-2.15S615.67,463.62,615.67,464.81Z"/><path class="cls-1" d="M615.67,464.81v7.44c0,1.18-4.39,2.15-9.79,2.15s-9.8-1-9.8-2.15v-7.44c0,1.18,4.39,2.14,9.8,2.14S615.67,466,615.67,464.81Z"/><path class="cls-1" d="M683.2,464.81c0,1.18-4.39,2.14-9.8,2.14s-9.79-1-9.79-2.14,4.38-2.15,9.79-2.15S683.2,463.62,683.2,464.81Z"/><path class="cls-1" d="M683.2,464.81v7.44c0,1.18-4.39,2.15-9.8,2.15s-9.79-1-9.79-2.15v-7.44c0,1.18,4.38,2.14,9.79,2.14S683.2,466,683.2,464.81Z"/><path class="cls-1" d="M744.91,464.81c0,1.18-4.39,2.14-9.8,2.14s-9.79-1-9.79-2.14,4.38-2.15,9.79-2.15S744.91,463.62,744.91,464.81Z"/><path class="cls-1" d="M744.91,464.81v7.44c0,1.18-4.39,2.15-9.8,2.15s-9.79-1-9.79-2.15v-7.44c0,1.18,4.38,2.14,9.79,2.14S744.91,466,744.91,464.81Z"/><rect class="cls-1" x="26.09" y="38.25" width="56.38" height="443.1"/><polygon class="cls-1" points="102.94 17.77 102.94 460.87 82.47 481.35 82.47 38.26 102.94 17.77"/><polygon class="cls-1" points="102.94 17.77 82.47 38.26 26.09 38.26 46.57 17.77 102.94 17.77"/><path class="cls-1" d="M75.45,21.6c0,1.18-4.38,2.14-9.79,2.14s-9.8-1-9.8-2.14,4.39-2.15,9.8-2.15S75.45,20.41,75.45,21.6Z"/><path class="cls-1" d="M75.45,21.6v7.45c0,1.18-4.38,2.14-9.79,2.14s-9.8-1-9.8-2.14V21.6c0,1.18,4.39,2.14,9.8,2.14S75.45,22.78,75.45,21.6Z"/><rect class="cls-1" x="691.36" y="38.25" width="56.38" height="443.1"/><polygon class="cls-2" points="768.21 17.77 768.21 460.87 747.73 481.35 747.73 38.26 768.21 17.77"/><polygon class="cls-1" points="768.21 17.77 747.73 38.26 691.36 38.26 711.84 17.77 768.21 17.77"/><path class="cls-1" d="M740.72,21.6c0,1.18-4.39,2.14-9.8,2.14s-9.79-1-9.79-2.14,4.38-2.15,9.79-2.15S740.72,20.41,740.72,21.6Z"/><path class="cls-1" d="M740.72,21.6v7.45c0,1.18-4.39,2.14-9.8,2.14s-9.79-1-9.79-2.14V21.6c0,1.18,4.38,2.14,9.79,2.14S740.72,22.78,740.72,21.6Z"/><rect class="cls-1" x="26.09" y="38.25" width="721.64" height="23.87"/><polygon class="cls-2" points="768.21 17.77 768.21 41.64 747.73 62.12 747.73 38.26 768.21 17.77"/><polygon class="cls-2" points="768.21 17.77 747.73 38.26 26.09 38.26 46.57 17.77 768.21 17.77"/><path class="cls-2" d="M75.45,21.6c0,1.18-4.38,2.14-9.79,2.14s-9.8-1-9.8-2.14,4.39-2.15,9.8-2.15S75.45,20.41,75.45,21.6Z"/><path class="cls-1" d="M75.45,21.6v7.45c0,1.18-4.38,2.14-9.79,2.14s-9.8-1-9.8-2.14V21.6c0,1.18,4.39,2.14,9.8,2.14S75.45,22.78,75.45,21.6Z"/><path class="cls-2" d="M143,21.6c0,1.18-4.38,2.14-9.79,2.14s-9.8-1-9.8-2.14,4.39-2.15,9.8-2.15S143,20.41,143,21.6Z"/><path class="cls-1" d="M143,21.6v7.45c0,1.18-4.38,2.14-9.79,2.14s-9.8-1-9.8-2.14V21.6c0,1.18,4.39,2.14,9.8,2.14S143,22.78,143,21.6Z"/><path class="cls-2" d="M210.51,21.6c0,1.18-4.39,2.14-9.8,2.14s-9.79-1-9.79-2.14,4.38-2.15,9.79-2.15S210.51,20.41,210.51,21.6Z"/><path class="cls-1" d="M210.51,21.6v7.45c0,1.18-4.39,2.14-9.8,2.14s-9.79-1-9.79-2.14V21.6c0,1.18,4.38,2.14,9.79,2.14S210.51,22.78,210.51,21.6Z"/><path class="cls-2" d="M278,21.6c0,1.18-4.38,2.14-9.79,2.14s-9.79-1-9.79-2.14,4.38-2.15,9.79-2.15S278,20.41,278,21.6Z"/><path class="cls-1" d="M278,21.6v7.45c0,1.18-4.38,2.14-9.79,2.14s-9.79-1-9.79-2.14V21.6c0,1.18,4.38,2.14,9.79,2.14S278,22.78,278,21.6Z"/><path class="cls-2" d="M345.56,21.6c0,1.18-4.38,2.14-9.79,2.14s-9.8-1-9.8-2.14,4.39-2.15,9.8-2.15S345.56,20.41,345.56,21.6Z"/><path class="cls-1" d="M345.56,21.6v7.45c0,1.18-4.38,2.14-9.79,2.14s-9.8-1-9.8-2.14V21.6c0,1.18,4.39,2.14,9.8,2.14S345.56,22.78,345.56,21.6Z"/><path class="cls-2" d="M413.09,21.6c0,1.18-4.39,2.14-9.8,2.14s-9.79-1-9.79-2.14,4.38-2.15,9.79-2.15S413.09,20.41,413.09,21.6Z"/><path class="cls-1" d="M413.09,21.6v7.45c0,1.18-4.39,2.14-9.8,2.14s-9.79-1-9.79-2.14V21.6c0,1.18,4.38,2.14,9.79,2.14S413.09,22.78,413.09,21.6Z"/><path class="cls-2" d="M480.62,21.6c0,1.18-4.39,2.14-9.8,2.14s-9.79-1-9.79-2.14,4.38-2.15,9.79-2.15S480.62,20.41,480.62,21.6Z"/><path class="cls-1" d="M480.62,21.6v7.45c0,1.18-4.39,2.14-9.8,2.14s-9.79-1-9.79-2.14V21.6c0,1.18,4.38,2.14,9.79,2.14S480.62,22.78,480.62,21.6Z"/><path class="cls-2" d="M548.14,21.6c0,1.18-4.38,2.14-9.79,2.14s-9.8-1-9.8-2.14,4.39-2.15,9.8-2.15S548.14,20.41,548.14,21.6Z"/><path class="cls-1" d="M548.14,21.6v7.45c0,1.18-4.38,2.14-9.79,2.14s-9.8-1-9.8-2.14V21.6c0,1.18,4.39,2.14,9.8,2.14S548.14,22.78,548.14,21.6Z"/><path class="cls-2" d="M615.67,21.6c0,1.18-4.39,2.14-9.79,2.14s-9.8-1-9.8-2.14,4.39-2.15,9.8-2.15S615.67,20.41,615.67,21.6Z"/><path class="cls-1" d="M615.67,21.6v7.45c0,1.18-4.39,2.14-9.79,2.14s-9.8-1-9.8-2.14V21.6c0,1.18,4.39,2.14,9.8,2.14S615.67,22.78,615.67,21.6Z"/><path class="cls-2" d="M683.2,21.6c0,1.18-4.39,2.14-9.8,2.14s-9.79-1-9.79-2.14,4.38-2.15,9.79-2.15S683.2,20.41,683.2,21.6Z"/><path class="cls-1" d="M683.2,21.6v7.45c0,1.18-4.39,2.14-9.8,2.14s-9.79-1-9.79-2.14V21.6c0,1.18,4.38,2.14,9.79,2.14S683.2,22.78,683.2,21.6Z"/><path class="cls-2" d="M744.91,21.6c0,1.18-4.39,2.14-9.8,2.14s-9.79-1-9.79-2.14,4.38-2.15,9.79-2.15S744.91,20.41,744.91,21.6Z"/><path class="cls-1" d="M744.91,21.6v7.45c0,1.18-4.39,2.14-9.8,2.14s-9.79-1-9.79-2.14V21.6c0,1.18,4.38,2.14,9.79,2.14S744.91,22.78,744.91,21.6Z"/><rect class="cls-7" x="82.47" y="62.12" width="610.06" height="419.23"/></g></svg>