<svg xmlns="http://www.w3.org/2000/svg" viewBox="0 0 673.61 847.35"><defs><style>.cls-1{fill:gray;}.cls-1,.cls-2{stroke:#000;stroke-miterlimit:10;stroke-width:3px;}.cls-2{fill:#666;}</style></defs><g id="Tekst"><rect class="cls-1" width="673.61" height="847.35"/><circle class="cls-2" cx="41.29" cy="41.64" r="16.17"/><circle class="cls-2" cx="94.32" cy="41.64" r="16.17"/><circle class="cls-2" cx="147.35" cy="41.64" r="16.17"/><circle class="cls-2" cx="200.38" cy="41.64" r="16.17"/><circle class="cls-2" cx="253.42" cy="41.64" r="16.17"/><circle class="cls-2" cx="306.45" cy="41.64" r="16.17"/><circle class="cls-2" cx="359.48" cy="41.64" r="16.17"/><circle class="cls-2" cx="412.52" cy="41.64" r="16.17"/><circle class="cls-2" cx="470.68" cy="41.64" r="16.17"/><circle class="cls-2" cx="523.71" cy="41.64" r="16.17"/><circle class="cls-2" cx="576.75" cy="41.64" r="16.17"/><circle class="cls-2" cx="629.78" cy="41.64" r="16.17"/><circle class="cls-2" cx="41.29" cy="100.6" r="16.17"/><circle class="cls-2" cx="94.32" cy="100.6" r="16.17"/><circle class="cls-2" cx="147.35" cy="100.6" r="16.17"/><circle class="cls-2" cx="200.38" cy="100.6" r="16.17"/><circle class="cls-2" cx="253.42" cy="100.6" r="16.17"/><circle class="cls-2" cx="306.45" cy="100.6" r="16.17"/><circle class="cls-2" cx="359.48" cy="100.6" r="16.17"/><circle class="cls-2" cx="412.52" cy="100.6" r="16.17"/><circle class="cls-2" cx="470.68" cy="100.6" r="16.17"/><circle class="cls-2" cx="523.71" cy="100.6" r="16.17"/><circle class="cls-2" cx="576.75" cy="100.6" r="16.17"/><circle class="cls-2" cx="629.78" cy="100.6" r="16.17"/><circle class="cls-2" cx="41.29" cy="159.56" r="16.17"/><circle class="cls-2" cx="94.32" cy="159.56" r="16.17"/><circle class="cls-2" cx="147.35" cy="159.56" r="16.17"/><circle class="cls-2" cx="200.38" cy="159.56" r="16.17"/><circle class="cls-2" cx="253.42" cy="159.56" r="16.17"/><circle class="cls-2" cx="306.45" cy="159.56" r="16.17"/><circle class="cls-2" cx="359.48" cy="159.56" r="16.17"/><circle class="cls-2" cx="412.52" cy="159.56" r="16.17"/><circle class="cls-2" cx="470.68" cy="159.56" r="16.17"/><circle class="cls-2" cx="523.71" cy="159.56" r="16.17"/><circle class="cls-2" cx="576.75" cy="159.56" r="16.17"/><circle class="cls-2" cx="629.78" cy="159.56" r="16.17"/><circle class="cls-2" cx="41.29" cy="218.52" r="16.17"/><circle class="cls-2" cx="94.32" cy="218.52" r="16.17"/><circle class="cls-2" cx="147.35" cy="218.52" r="16.17"/><circle class="cls-2" cx="200.38" cy="218.52" r="16.17"/><circle class="cls-2" cx="253.42" cy="218.52" r="16.17"/><circle class="cls-2" cx="306.45" cy="218.52" r="16.17"/><circle class="cls-2" cx="359.48" cy="218.52" r="16.17"/><circle class="cls-2" cx="412.52" cy="218.52" r="16.17"/><circle class="cls-2" cx="470.68" cy="218.52" r="16.17"/><circle class="cls-2" cx="523.71" cy="218.52" r="16.17"/><circle class="cls-2" cx="576.75" cy="218.52" r="16.17"/><circle class="cls-2" cx="629.78" cy="218.52" r="16.17"/><circle class="cls-2" cx="41.29" cy="277.48" r="16.17"/><circle class="cls-2" cx="94.32" cy="277.48" r="16.17"/><circle class="cls-2" cx="147.35" cy="277.48" r="16.17"/><circle class="cls-2" cx="200.38" cy="277.48" r="16.17"/><circle class="cls-2" cx="253.42" cy="277.48" r="16.17"/><circle class="cls-2" cx="306.45" cy="277.48" r="16.17"/><circle class="cls-2" cx="359.48" cy="277.48" r="16.17"/><circle class="cls-2" cx="412.52" cy="277.48" r="16.17"/><circle class="cls-2" cx="470.68" cy="277.48" r="16.17"/><circle class="cls-2" cx="523.71" cy="277.48" r="16.17"/><circle class="cls-2" cx="576.75" cy="277.48" r="16.17"/><circle class="cls-2" cx="629.78" cy="277.48" r="16.17"/><circle class="cls-2" cx="41.29" cy="336.44" r="16.17"/><circle class="cls-2" cx="94.32" cy="336.44" r="16.17"/><circle class="cls-2" cx="147.35" cy="336.44" r="16.17"/><circle class="cls-2" cx="200.38" cy="336.44" r="16.17"/><circle class="cls-2" cx="253.42" cy="336.44" r="16.17"/><circle class="cls-2" cx="306.45" cy="336.44" r="16.17"/><circle class="cls-2" cx="359.48" cy="336.44" r="16.17"/><circle class="cls-2" cx="412.52" cy="336.44" r="16.17"/><circle class="cls-2" cx="470.68" cy="336.44" r="16.17"/><circle class="cls-2" cx="523.71" cy="336.44" r="16.17"/><circle class="cls-2" cx="576.75" cy="336.44" r="16.17"/><circle class="cls-2" cx="629.78" cy="336.44" r="16.17"/><circle class="cls-2" cx="41.29" cy="395.4" r="16.17"/><circle class="cls-2" cx="94.32" cy="395.4" r="16.17"/><circle class="cls-2" cx="147.35" cy="395.4" r="16.17"/><circle class="cls-2" cx="200.38" cy="395.4" r="16.17"/><circle class="cls-2" cx="253.42" cy="395.4" r="16.17"/><circle class="cls-2" cx="306.45" cy="395.4" r="16.17"/><circle class="cls-2" cx="359.48" cy="395.4" r="16.17"/><circle class="cls-2" cx="412.52" cy="395.4" r="16.17"/><circle class="cls-2" cx="470.68" cy="395.4" r="16.17"/><circle class="cls-2" cx="523.71" cy="395.4" r="16.17"/><circle class="cls-2" cx="576.75" cy="395.4" r="16.17"/><circle class="cls-2" cx="629.78" cy="395.4" r="16.17"/><circle class="cls-2" cx="41.29" cy="454.36" r="16.17"/><circle class="cls-2" cx="94.32" cy="454.36" r="16.17"/><circle class="cls-2" cx="147.35" cy="454.36" r="16.17"/><circle class="cls-2" cx="200.38" cy="454.36" r="16.17"/><circle class="cls-2" cx="253.42" cy="454.36" r="16.17"/><circle class="cls-2" cx="306.45" cy="454.36" r="16.17"/><circle class="cls-2" cx="359.48" cy="454.36" r="16.17"/><circle class="cls-2" cx="412.52" cy="454.36" r="16.17"/><circle class="cls-2" cx="470.68" cy="454.36" r="16.17"/><circle class="cls-2" cx="523.71" cy="454.36" r="16.17"/><circle class="cls-2" cx="576.75" cy="454.36" r="16.17"/><circle class="cls-2" cx="629.78" cy="454.36" r="16.17"/><circle class="cls-2" cx="41.29" cy="513.32" r="16.17"/><circle class="cls-2" cx="94.32" cy="513.32" r="16.17"/><circle class="cls-2" cx="147.35" cy="513.32" r="16.17"/><circle class="cls-2" cx="200.38" cy="513.32" r="16.17"/><circle class="cls-2" cx="253.42" cy="513.32" r="16.17"/><circle class="cls-2" cx="306.45" cy="513.32" r="16.17"/><circle class="cls-2" cx="359.48" cy="513.32" r="16.17"/><circle class="cls-2" cx="412.52" cy="513.32" r="16.17"/><circle class="cls-2" cx="470.68" cy="513.32" r="16.17"/><circle class="cls-2" cx="523.71" cy="513.32" r="16.17"/><circle class="cls-2" cx="576.75" cy="513.32" r="16.17"/><circle class="cls-2" cx="629.78" cy="513.32" r="16.17"/><circle class="cls-2" cx="41.29" cy="572.28" r="16.17"/><circle class="cls-2" cx="94.32" cy="572.28" r="16.17"/><circle class="cls-2" cx="147.35" cy="572.28" r="16.17"/><circle class="cls-2" cx="200.38" cy="572.28" r="16.17"/><circle class="cls-2" cx="253.42" cy="572.28" r="16.17"/><circle class="cls-2" cx="306.45" cy="572.28" r="16.17"/><circle class="cls-2" cx="359.48" cy="572.28" r="16.17"/><circle class="cls-2" cx="412.52" cy="572.28" r="16.17"/><circle class="cls-2" cx="470.68" cy="572.28" r="16.17"/><circle class="cls-2" cx="523.71" cy="572.28" r="16.17"/><circle class="cls-2" cx="576.75" cy="572.28" r="16.17"/><circle class="cls-2" cx="629.78" cy="572.28" r="16.17"/><circle class="cls-2" cx="41.29" cy="631.24" r="16.17"/><circle class="cls-2" cx="94.32" cy="631.24" r="16.17"/><circle class="cls-2" cx="147.35" cy="631.24" r="16.17"/><circle class="cls-2" cx="200.38" cy="631.24" r="16.17"/><circle class="cls-2" cx="253.42" cy="631.24" r="16.17"/><circle class="cls-2" cx="306.45" cy="631.24" r="16.17"/><circle class="cls-2" cx="359.48" cy="631.24" r="16.17"/><circle class="cls-2" cx="412.52" cy="631.24" r="16.17"/><circle class="cls-2" cx="470.68" cy="631.24" r="16.17"/><circle class="cls-2" cx="523.71" cy="631.24" r="16.17"/><circle class="cls-2" cx="576.75" cy="631.24" r="16.17"/><circle class="cls-2" cx="629.78" cy="631.24" r="16.17"/><circle class="cls-2" cx="41.29" cy="690.2" r="16.17"/><circle class="cls-2" cx="94.32" cy="690.2" r="16.17"/><circle class="cls-2" cx="147.35" cy="690.2" r="16.17"/><circle class="cls-2" cx="200.38" cy="690.2" r="16.17"/><circle class="cls-2" cx="253.42" cy="690.2" r="16.17"/><circle class="cls-2" cx="306.45" cy="690.2" r="16.17"/><circle class="cls-2" cx="359.48" cy="690.2" r="16.17"/><circle class="cls-2" cx="412.52" cy="690.2" r="16.17"/><circle class="cls-2" cx="470.68" cy="690.2" r="16.17"/><circle class="cls-2" cx="523.71" cy="690.2" r="16.17"/><circle class="cls-2" cx="576.75" cy="690.2" r="16.17"/><circle class="cls-2" cx="629.78" cy="690.2" r="16.17"/><circle class="cls-2" cx="41.29" cy="749.16" r="16.17"/><circle class="cls-2" cx="94.32" cy="749.16" r="16.17"/><circle class="cls-2" cx="147.35" cy="749.16" r="16.17"/><circle class="cls-2" cx="200.38" cy="749.16" r="16.17"/><circle class="cls-2" cx="253.42" cy="749.16" r="16.17"/><circle class="cls-2" cx="306.45" cy="749.16" r="16.17"/><circle class="cls-2" cx="359.48" cy="749.16" r="16.17"/><circle class="cls-2" cx="412.52" cy="749.16" r="16.17"/><circle class="cls-2" cx="470.68" cy="749.16" r="16.17"/><circle class="cls-2" cx="523.71" cy="749.16" r="16.17"/><circle class="cls-2" cx="576.75" cy="749.16" r="16.17"/><circle class="cls-2" cx="629.78" cy="749.16" r="16.17"/><circle class="cls-2" cx="41.29" cy="808.12" r="16.17"/><circle class="cls-2" cx="94.32" cy="808.12" r="16.17"/><circle class="cls-2" cx="147.35" cy="808.12" r="16.17"/><circle class="cls-2" cx="200.38" cy="808.12" r="16.17"/><circle class="cls-2" cx="253.42" cy="808.12" r="16.17"/><circle class="cls-2" cx="306.45" cy="808.12" r="16.17"/><circle class="cls-2" cx="359.48" cy="808.12" r="16.17"/><circle class="cls-2" cx="412.52" cy="808.12" r="16.17"/><circle class="cls-2" cx="470.68" cy="808.12" r="16.17"/><circle class="cls-2" cx="523.71" cy="808.12" r="16.17"/><circle class="cls-2" cx="576.75" cy="808.12" r="16.17"/><circle class="cls-2" cx="629.78" cy="808.12" r="16.17"/></g></svg>