<svg xmlns="http://www.w3.org/2000/svg" viewBox="0 0 85.51 91.89"><defs><style>.cls-1{fill:#b3b3b3;}.cls-1,.cls-2{stroke:#000;stroke-miterlimit:10;}.cls-2{fill:#666;}</style></defs><g id="Tekst"><polygon class="cls-1" points="85.51 25.28 85.51 0 0 0 0 25.28 19.23 25.28 19.23 66.61 0 66.61 0 91.89 85.51 91.89 85.51 66.61 64.49 66.61 64.49 25.28 85.51 25.28"/><circle class="cls-2" cx="11.5" cy="11.61" r="6.3"/><circle class="cls-2" cx="32.16" cy="11.61" r="6.3"/><circle class="cls-2" cx="52.82" cy="11.61" r="6.3"/><circle class="cls-2" cx="73.48" cy="11.61" r="6.3"/><circle class="cls-2" cx="52.82" cy="34.58" r="6.3"/><circle class="cls-2" cx="52.82" cy="57.55" r="6.3"/><circle class="cls-2" cx="32.16" cy="34.58" r="6.3"/><circle class="cls-2" cx="32.16" cy="57.55" r="6.3"/><circle class="cls-2" cx="11.5" cy="80.52" r="6.3"/><circle class="cls-2" cx="32.16" cy="80.52" r="6.3"/><circle class="cls-2" cx="52.82" cy="80.52" r="6.3"/><circle class="cls-2" cx="73.48" cy="80.52" r="6.3"/></g></svg>