<svg xmlns="http://www.w3.org/2000/svg" viewBox="0 0 55.34 118.95"><defs><style>.cls-1{fill:#f0f;}.cls-1,.cls-2,.cls-3{stroke:#000;stroke-miterlimit:10;}.cls-3{fill:#ff0;}</style></defs><g id="Tekst"><polygon class="cls-1" points="0 0 0 59.48 0 118.95 55.34 118.95 55.34 59.48 55.34 0 0 0"/><circle class="cls-2" cx="7.44" cy="7.51" r="4.08"/><circle class="cls-2" cx="20.81" cy="7.51" r="4.08"/><circle class="cls-2" cx="34.18" cy="7.51" r="4.08"/><circle class="cls-2" cx="47.56" cy="7.51" r="4.08"/><circle class="cls-2" cx="7.44" cy="22.38" r="4.08"/><circle class="cls-2" cx="47.56" cy="22.38" r="4.08"/><circle class="cls-2" cx="7.44" cy="37.25" r="4.08"/><circle class="cls-2" cx="47.56" cy="37.25" r="4.08"/><circle class="cls-2" cx="7.44" cy="52.11" r="4.08"/><circle class="cls-2" cx="20.81" cy="52.11" r="4.08"/><circle class="cls-2" cx="34.18" cy="52.11" r="4.08"/><circle class="cls-2" cx="47.56" cy="52.11" r="4.08"/><circle class="cls-2" cx="7.44" cy="65.01" r="4.08"/><circle class="cls-2" cx="20.81" cy="65.01" r="4.08"/><circle class="cls-3" cx="28.08" cy="87.49" r="11.69"/><circle class="cls-3" cx="28.08" cy="29.99" r="11.69"/><circle class="cls-2" cx="34.18" cy="65.01" r="4.08"/><circle class="cls-2" cx="47.56" cy="65.01" r="4.08"/><circle class="cls-2" cx="7.44" cy="79.87" r="4.08"/><circle class="cls-2" cx="47.56" cy="79.87" r="4.08"/><circle class="cls-2" cx="47.56" cy="94.74" r="4.08"/><circle class="cls-2" cx="7.44" cy="94.74" r="4.08"/><circle class="cls-2" cx="7.44" cy="109.61" r="4.08"/><circle class="cls-2" cx="20.81" cy="109.61" r="4.08"/><circle class="cls-2" cx="34.18" cy="109.61" r="4.08"/><circle class="cls-2" cx="47.56" cy="109.61" r="4.08"/></g></svg>