<svg xmlns="http://www.w3.org/2000/svg" viewBox="0 0 40.65 116.67"><defs><style>.cls-1{fill:red;}.cls-1,.cls-2{stroke:#000;stroke-miterlimit:10;}.cls-2{fill:blue;}</style></defs><g id="Tekst"><polygon class="cls-1" points="0 0 0 58.34 0 116.67 14.42 116.67 14.42 58.34 14.42 0 0 0"/><circle class="cls-2" cx="7.21" cy="7.37" r="4"/><circle class="cls-2" cx="7.21" cy="21.95" r="4"/><circle class="cls-2" cx="7.21" cy="36.53" r="4"/><circle class="cls-2" cx="7.21" cy="51.11" r="4"/><circle class="cls-2" cx="7.21" cy="65.71" r="4"/><circle class="cls-2" cx="7.21" cy="80.29" r="4"/><circle class="cls-2" cx="7.21" cy="94.87" r="4"/><circle class="cls-2" cx="7.21" cy="109.45" r="4"/><polygon class="cls-1" points="26.23 0 26.23 58.34 26.23 116.67 40.65 116.67 40.65 58.34 40.65 0 26.23 0"/><circle class="cls-2" cx="33.44" cy="7.37" r="4"/><circle class="cls-2" cx="33.44" cy="21.95" r="4"/><circle class="cls-2" cx="33.44" cy="36.53" r="4"/><circle class="cls-2" cx="33.44" cy="51.11" r="4"/><circle class="cls-2" cx="33.44" cy="65.71" r="4"/><circle class="cls-2" cx="33.44" cy="80.29" r="4"/><circle class="cls-2" cx="33.44" cy="94.87" r="4"/><circle class="cls-2" cx="33.44" cy="109.45" r="4"/></g></svg>